<?xml version="1.0" standalone="no"?>
<!DOCTYPE svg PUBLIC "-//W3C//DTD SVG 20010904//EN"
 "http://www.w3.org/TR/2001/REC-SVG-20010904/DTD/svg10.dtd">
<svg version="1.0" xmlns="http://www.w3.org/2000/svg"
 width="300.000000pt" height="295.000000pt" viewBox="0 0 300.000000 295.000000"
 preserveAspectRatio="xMidYMid meet">
<metadata>
Created by potrace 1.10, written by Peter Selinger 2001-2011
</metadata>
<g transform="translate(0.000000,295.000000) scale(0.100000,-0.100000)"
fill="#000000" stroke="none">
<path d="M1230 2928 c0 -17 -15 -22 -53 -18 -10 1 -27 -6 -36 -14 -16 -14 -22
-15 -58 -2 -23 8 -46 11 -54 6 -7 -5 -17 -6 -21 -4 -4 3 -8 -2 -8 -10 0 -22
17 -28 24 -9 6 15 8 15 17 3 7 -13 10 -13 18 -1 5 7 11 9 14 3 4 -5 -11 -16
-33 -25 -34 -13 -40 -13 -40 -1 0 18 -14 18 -30 -1 -7 -8 -28 -15 -47 -15 -23
0 -41 -8 -57 -25 -26 -27 -73 -48 -93 -41 -7 3 -13 -1 -13 -8 0 -16 -41 -29
-64 -20 -9 3 -17 1 -17 -5 -1 -6 -2 -17 -3 -23 0 -7 -11 -14 -23 -16 -13 -2
-23 -7 -23 -12 0 -5 -24 -20 -53 -34 -30 -14 -60 -32 -67 -41 -7 -8 -17 -15
-22 -15 -17 0 -121 -86 -168 -138 -67 -76 -86 -102 -115 -168 -15 -32 -34 -73
-42 -91 -9 -17 -13 -36 -9 -41 3 -5 -6 -22 -20 -37 -14 -16 -23 -34 -19 -43 3
-8 -1 -23 -10 -32 -8 -9 -16 -37 -18 -61 -1 -24 -8 -48 -15 -54 -12 -10 -17
-32 -27 -118 -2 -21 -7 -42 -10 -46 -3 -5 3 -12 13 -16 15 -6 13 -9 -10 -21
-16 -8 -28 -17 -28 -20 0 -3 4 -3 9 1 5 3 12 1 16 -5 3 -5 1 -10 -5 -10 -7 0
-10 -7 -6 -15 3 -8 1 -15 -4 -15 -5 0 -7 -7 -4 -15 5 -11 10 -13 19 -5 8 6 16
7 19 2 3 -5 -6 -14 -20 -21 -16 -7 -24 -18 -22 -29 2 -9 7 -15 12 -14 13 5 24
-18 18 -40 -3 -14 -8 -16 -15 -9 -17 17 -22 13 -23 -14 -1 -15 3 -25 12 -25
19 0 18 -20 -3 -35 -14 -11 -15 -15 -4 -28 7 -9 10 -20 7 -26 -3 -5 -2 -11 4
-13 6 -2 6 -16 -2 -40 -9 -32 -8 -41 8 -65 10 -15 17 -31 16 -35 -1 -5 3 -8 9
-8 15 0 34 -22 35 -42 1 -10 -4 -14 -12 -11 -8 3 -17 -2 -20 -11 -6 -16 -24
-13 -24 5 0 6 5 7 12 3 8 -5 9 -2 5 9 -4 10 -1 17 5 17 6 0 9 2 6 5 -3 3 -12
3 -19 0 -20 -7 -22 -55 -4 -79 15 -20 37 -14 29 8 -3 8 -1 17 5 21 25 15 21
-26 -4 -48 -26 -22 -27 -24 -10 -40 9 -10 15 -24 12 -32 -11 -28 43 -44 72
-21 12 9 12 8 3 -11 -12 -22 0 -35 26 -26 17 6 15 23 -8 71 -11 22 -20 46 -20
52 0 5 -3 10 -7 10 -5 0 -8 12 -9 28 0 15 -10 74 -21 132 -39 194 -38 209 13
129 13 -21 40 -49 59 -61 19 -13 35 -27 35 -32 0 -5 11 -19 24 -31 14 -13 23
-25 20 -27 -2 -3 17 -24 43 -48 27 -23 59 -52 72 -63 13 -12 28 -21 33 -19 5
1 7 -2 3 -7 -3 -6 3 -16 15 -23 11 -7 20 -17 20 -21 0 -12 30 -40 36 -35 2 3
-2 11 -11 18 -22 18 -18 32 5 18 11 -7 20 -21 20 -32 0 -10 8 -25 18 -32 16
-13 16 -13 0 -14 -10 0 -18 -5 -18 -12 0 -6 3 -8 6 -5 9 9 46 -12 62 -35 7
-10 20 -18 28 -18 17 0 44 -23 44 -38 0 -5 28 -35 63 -67 93 -87 104 -95 116
-95 7 0 10 -3 7 -8 -6 -11 71 -98 80 -90 4 4 1 14 -6 23 -15 18 -7 20 12 2 7
-7 24 -18 38 -25 24 -12 24 -12 -7 -6 -21 3 -33 1 -33 -5 0 -6 5 -11 11 -11
18 0 56 -34 52 -47 -2 -6 1 -14 6 -18 6 -3 11 -1 11 5 0 6 4 9 10 5 5 -3 7
-11 4 -18 -2 -7 5 -24 16 -37 l20 -23 21 21 c26 28 44 28 46 0 0 -13 -1 -17
-4 -10 -4 10 -8 10 -19 1 -21 -17 -17 -41 10 -67 29 -27 39 -28 31 -2 -4 11
-2 20 4 20 6 0 11 -15 11 -32 1 -34 42 -94 59 -84 11 7 35 -20 28 -31 -6 -10
21 -49 31 -45 4 1 7 -4 7 -10 0 -7 8 -12 18 -12 9 1 14 -2 11 -7 -6 -11 103
-144 119 -144 7 0 11 12 9 30 -2 24 -1 27 8 13 6 -10 18 -14 30 -11 14 4 20 0
20 -11 0 -11 5 -14 12 -10 8 5 9 2 4 -11 -4 -11 -2 -22 6 -27 10 -6 7 -10 -9
-14 -13 -4 -20 -11 -16 -17 3 -5 1 -7 -5 -4 -5 4 -34 10 -64 13 -29 3 -57 9
-63 12 -5 3 -30 10 -55 14 -96 16 -116 21 -131 35 -10 8 -37 16 -60 18 -59 5
-99 15 -99 26 0 15 -60 40 -80 34 -12 -4 -20 -2 -20 4 0 6 5 11 11 11 5 0 7 5
3 11 -4 7 -22 9 -46 6 -30 -4 -41 -1 -50 13 -6 10 -17 16 -23 14 -17 -7 -65
13 -65 27 0 6 7 8 16 5 8 -3 12 -2 9 4 -12 20 13 10 26 -11 13 -18 16 -19 34
-6 19 14 18 16 -18 30 -20 9 -37 22 -37 30 0 8 -7 20 -15 27 -13 11 -14 10 -9
-4 3 -9 2 -16 -4 -16 -15 0 -33 26 -24 35 4 5 2 5 -5 1 -6 -3 -14 -2 -18 4 -8
13 -45 13 -45 0 0 -5 9 -10 19 -10 27 0 96 -66 77 -73 -17 -7 -45 23 -39 40 3
8 -10 15 -35 19 -32 5 -39 10 -35 23 5 13 3 14 -8 4 -18 -18 -39 -16 -39 2 0
8 7 15 15 15 9 0 15 9 15 23 0 16 -3 18 -9 9 -6 -11 -10 -10 -15 4 -4 9 -2 22
3 27 11 11 -28 47 -50 47 -7 0 -21 7 -31 17 -10 9 -18 11 -18 6 0 -6 -9 -13
-20 -16 -12 -3 -20 0 -20 7 0 17 -37 17 -51 -1 -11 -12 -9 -18 11 -33 13 -10
30 -16 37 -13 7 3 20 0 28 -7 12 -10 21 -10 40 -2 26 12 34 1 17 -26 -7 -10
-14 -10 -37 2 -29 15 -45 13 -45 -5 0 -5 6 -9 14 -9 7 0 19 -7 26 -15 7 -8 16
-12 21 -9 5 3 9 -2 9 -10 0 -8 18 -27 41 -43 22 -15 59 -42 83 -60 193 -143
559 -258 853 -268 130 -4 304 11 391 35 21 5 67 16 104 25 129 30 240 77 401
168 47 27 72 47 69 56 -3 8 0 11 6 7 15 -9 83 34 75 47 -4 6 -1 7 6 3 13 -9
51 20 51 38 0 7 13 17 30 23 16 6 34 22 39 35 5 14 21 32 36 42 14 9 31 29 38
44 6 15 14 29 17 32 21 18 49 80 43 96 -4 11 -3 15 5 10 6 -4 22 9 36 31 28
41 32 53 15 53 -5 0 -7 -4 -4 -10 3 -5 2 -10 -3 -10 -22 0 -19 15 8 44 34 36
36 42 14 50 -8 3 -12 10 -9 16 4 7 12 7 25 0 13 -7 19 -6 24 5 4 10 -1 15 -17
15 l-22 1 23 18 c22 19 22 51 0 51 -6 0 -6 6 2 14 6 8 18 12 26 9 8 -3 14 -1
14 5 0 6 -6 13 -12 15 -8 3 -6 6 5 6 19 1 23 26 6 37 -6 3 -7 9 -2 13 18 13
32 58 21 69 -7 7 -4 14 10 23 16 10 18 17 11 43 -12 40 -11 49 1 41 11 -7 14
8 3 19 -9 9 -11 46 -2 46 11 0 17 74 6 82 -7 4 -6 12 2 22 8 10 10 26 6 46
-11 51 -13 80 -4 75 4 -3 10 -1 14 4 8 13 -21 81 -34 81 -6 0 -11 5 -11 11 0
6 9 8 20 4 20 -6 20 -5 7 27 -7 18 -14 60 -15 92 -1 33 -6 63 -13 66 -11 8
-20 53 -20 104 0 16 -4 35 -10 42 -5 7 -12 25 -15 40 -7 39 -34 94 -46 94 -5
0 -8 6 -5 13 5 13 -23 67 -35 67 -4 0 -8 7 -8 15 0 8 -4 15 -8 15 -5 0 -15 12
-22 28 -23 44 -92 142 -101 142 -5 0 -9 4 -9 10 0 10 -18 35 -60 80 -14 15
-37 40 -51 56 -14 16 -47 47 -73 69 -27 22 -54 45 -60 50 -17 16 -110 80 -118
81 -5 1 -15 2 -23 3 -8 0 -29 15 -47 31 -17 17 -42 30 -55 30 -13 0 -50 14
-83 30 -35 18 -60 25 -60 19 0 -7 -9 -4 -20 6 -12 11 -31 20 -43 22 -12 2 -24
8 -25 14 -3 6 -10 5 -19 -3 -13 -10 -19 -8 -39 15 -17 19 -24 23 -24 13 0 -9
-6 -16 -12 -16 -22 0 46 -49 68 -50 12 0 52 -12 90 -26 38 -14 96 -36 129 -47
33 -12 62 -24 65 -27 3 -4 23 -15 45 -27 133 -68 197 -117 294 -223 102 -111
271 -349 271 -382 0 -6 7 -20 17 -30 9 -10 20 -39 25 -66 5 -26 14 -76 21
-112 7 -36 15 -70 19 -76 4 -7 10 -34 12 -60 2 -27 7 -61 11 -76 5 -18 3 -28
-4 -28 -7 0 -5 -10 5 -25 9 -14 13 -29 9 -33 -4 -4 -10 -1 -12 6 -3 7 -11 19
-19 26 -8 8 -11 22 -8 30 4 11 0 16 -14 16 -14 0 -22 8 -24 23 -2 12 -9 23
-15 23 -7 1 -17 2 -23 3 -5 0 -7 7 -5 14 2 6 -28 37 -66 67 -39 30 -79 63 -87
73 -9 9 -23 17 -31 17 -8 0 -11 3 -8 7 8 7 -21 43 -35 43 -5 0 -7 -4 -4 -8 2
-4 1 -14 -5 -22 -7 -12 -9 -11 -9 6 0 11 -6 26 -12 33 -11 11 -10 13 2 7 8 -4
5 2 -8 13 -13 11 -30 17 -39 14 -11 -4 -14 -2 -11 8 6 16 -148 169 -169 169
-7 0 -13 4 -13 8 0 9 -9 19 -89 96 -28 27 -51 44 -51 38 0 -7 -9 -3 -20 8 -11
11 -20 23 -20 26 0 6 -64 69 -159 154 -40 36 -127 119 -195 185 -68 66 -152
146 -187 177 -40 36 -58 58 -47 58 9 0 19 -4 23 -10 3 -5 31 -8 63 -6 31 2 62
0 67 -4 6 -4 45 -17 88 -28 65 -16 75 -17 65 -5 -7 9 -13 23 -13 32 0 10 -10
17 -27 19 -16 2 -28 8 -28 13 0 5 -7 9 -15 9 -8 0 -14 -4 -13 -9 2 -5 -1 -9
-7 -10 -5 -1 -10 5 -10 12 0 8 -14 11 -43 10 -23 -2 -42 2 -42 7 0 6 -11 10
-25 10 -14 0 -25 -4 -25 -9 0 -5 -8 -8 -17 -6 -10 2 -22 4 -26 4 -5 1 -5 5 -2
11 7 11 -23 2 -42 -13 -12 -9 -17 -3 -14 16 1 5 -8 5 -20 2 -15 -5 -19 -4 -14
5 8 14 -63 3 -82 -13 -9 -7 -13 -5 -13 7 0 9 -4 16 -10 16 -5 0 -9 -3 -9 -7 4
-23 -2 -33 -13 -26 -7 4 -33 8 -56 9 -26 0 -48 7 -53 15 -7 11 -9 11 -9 -3z
m201 -62 c-7 -8 -38 -34 -69 -58 -31 -23 -93 -74 -137 -112 -44 -38 -109 -94
-145 -125 -119 -102 -260 -240 -260 -253 0 -4 -5 -8 -10 -8 -13 0 -220 -208
-220 -221 0 -5 -5 -9 -10 -9 -14 0 -180 -165 -180 -179 0 -6 -8 -15 -17 -18
-9 -4 -24 -14 -33 -22 -10 -9 -45 -41 -79 -71 -35 -30 -89 -81 -121 -112 -63
-62 -83 -72 -75 -35 2 12 9 56 15 97 5 41 12 82 13 90 2 8 7 33 11 55 17 89
60 235 93 315 39 95 112 225 121 216 6 -7 58 31 115 83 21 19 54 46 75 60 20
15 42 31 48 37 46 43 166 110 259 144 61 23 148 57 195 75 103 41 119 45 245
54 170 13 179 13 166 -3z m71 3 c11 -6 121 -112 244 -236 209 -212 242 -253
198 -253 -8 0 -14 -5 -14 -11 0 -5 -4 -7 -10 -4 -5 3 -10 2 -10 -3 0 -5 -11
-14 -25 -20 -13 -6 -44 -29 -67 -51 -24 -21 -60 -53 -80 -71 -24 -20 -35 -37
-31 -47 5 -12 1 -14 -14 -9 -16 5 -21 2 -19 -11 0 -11 -5 -17 -13 -15 -17 3
-51 -26 -51 -44 0 -7 -6 -11 -14 -8 -7 3 -23 -6 -34 -20 -20 -26 -42 -34 -42
-16 0 6 -13 10 -28 10 -16 0 -37 6 -48 14 -19 14 -19 15 0 22 13 5 23 2 32
-10 7 -10 22 -16 36 -14 21 3 19 6 -19 27 -23 13 -44 33 -47 44 -3 12 -8 18
-12 15 -3 -4 -19 7 -36 23 -17 16 -35 26 -40 23 -5 -3 -12 3 -15 14 -7 28 -62
67 -76 53 -7 -7 -6 -15 3 -28 13 -17 13 -17 -5 -1 -15 14 -16 20 -6 32 10 12
8 17 -9 26 -11 6 -18 15 -16 19 3 4 -10 14 -29 21 -19 7 -37 20 -40 27 -2 8
-9 11 -15 8 -5 -3 -10 -1 -10 4 0 17 -73 80 -92 81 -10 0 -18 -4 -18 -8 0 -9
73 -80 254 -247 60 -55 113 -106 120 -113 29 -35 43 -49 70 -69 l29 -23 -25
-19 c-57 -45 -93 -84 -80 -88 20 -8 13 -21 -8 -16 -30 8 -58 -22 -52 -55 5
-24 3 -25 -11 -14 -14 12 -21 9 -51 -19 -28 -25 -33 -35 -26 -50 16 -30 2 -49
-31 -42 -22 4 -29 2 -29 -10 0 -8 6 -18 13 -20 9 -4 9 -6 0 -6 -6 -1 -15 4
-18 9 -9 15 -25 12 -25 -5 0 -9 -10 -19 -22 -24 -13 -5 -37 -25 -54 -45 -24
-26 -38 -35 -60 -33 -31 2 -77 35 -68 49 3 4 -3 8 -13 8 -23 0 -63 27 -63 42
0 7 7 5 18 -4 17 -15 62 -35 49 -22 -4 4 1 13 11 20 16 12 15 13 -5 14 -13 0
-23 5 -23 10 0 6 -5 10 -11 10 -8 0 -9 -4 0 -13 6 -8 8 -17 4 -20 -8 -9 -32
24 -33 46 0 9 -7 17 -15 17 -8 0 -15 5 -15 10 0 6 -5 10 -12 10 -7 0 -22 12
-35 28 l-22 27 -1 -24 0 -24 -20 26 c-23 29 -25 38 -8 34 6 -1 14 6 16 16 2
11 -3 17 -13 17 -9 0 -21 13 -26 30 -6 17 -15 30 -20 30 -12 0 -12 -17 0 -24
14 -9 20 -57 7 -53 -6 2 -10 14 -9 26 2 11 -2 21 -7 21 -6 0 -10 -8 -11 -17
-1 -10 -6 -3 -12 15 -8 26 -14 31 -29 26 -17 -5 -18 -3 -9 14 15 29 14 31 -11
25 -21 -4 -21 -3 -5 7 24 16 11 33 -15 19 -14 -8 -23 -8 -31 0 -17 17 -29 13
-22 -9 5 -16 3 -19 -12 -14 -13 4 -11 0 6 -14 14 -11 31 -18 39 -15 8 4 12 0
10 -9 -5 -21 100 -124 123 -120 13 2 19 -3 19 -17 0 -11 12 -28 26 -38 15 -10
39 -31 53 -47 73 -80 125 -126 144 -126 7 0 18 -5 24 -11 12 -12 -34 -66 -146
-173 -30 -28 -99 -95 -153 -148 -54 -54 -103 -98 -108 -98 -6 0 -10 -3 -10 -7
-1 -5 -9 -18 -20 -31 -18 -22 -20 -22 -39 -5 -15 13 -17 19 -8 25 7 5 2 8 -15
8 -21 0 -28 5 -28 20 0 21 -33 60 -51 60 -6 0 -8 -7 -4 -17 5 -15 4 -16 -7 -5
-7 7 -13 18 -13 25 0 6 -11 14 -24 17 -14 3 -26 11 -29 18 -2 8 2 10 15 5 16
-6 16 -5 4 10 -7 9 -17 14 -22 11 -5 -3 -16 11 -26 31 -12 24 -22 34 -33 30
-11 -4 -20 5 -30 30 -8 19 -19 35 -24 35 -6 0 -23 11 -38 25 -15 14 -29 25
-31 25 -2 0 -22 18 -45 39 -30 29 -40 46 -38 65 3 27 16 49 16 27 0 -7 5 -9
10 -6 6 4 8 11 4 16 -3 6 1 9 10 7 9 -2 22 8 29 22 8 15 21 25 35 25 12 0 27
7 34 14 11 11 9 12 -9 7 -12 -4 -24 -2 -29 5 -4 7 -3 9 4 6 13 -9 42 2 42 15
0 5 -4 6 -10 3 -5 -3 -10 -1 -10 5 0 8 11 9 33 5 26 -6 30 -5 20 6 -20 21 -15
30 12 23 24 -6 31 2 26 29 -1 5 3 5 10 2 6 -4 19 1 29 11 9 11 36 37 59 58 32
29 39 41 29 47 -9 6 -7 9 8 9 12 0 27 7 34 15 10 12 10 15 -4 15 -9 0 -16 5
-16 11 0 6 6 9 13 6 7 -3 24 4 38 14 13 10 32 19 41 19 11 0 15 5 12 15 -4 8
1 17 10 21 9 3 16 10 16 16 0 5 16 24 36 42 20 19 34 38 30 44 -3 6 -2 13 4
17 5 3 10 0 10 -7 0 -7 12 1 26 17 31 38 35 42 59 63 11 9 35 36 53 59 18 23
42 45 52 48 11 4 20 12 20 18 1 15 35 57 47 57 4 0 42 33 83 74 111 110 206
200 283 264 37 31 98 85 135 119 37 34 68 63 70 63 2 0 13 -5 24 -11z m548
-537 c3 -1 59 -54 125 -116 92 -88 121 -111 126 -98 4 12 7 10 12 -10 4 -15
44 -59 99 -109 97 -86 122 -114 92 -102 -9 3 -19 2 -23 -3 -3 -5 -15 -14 -25
-20 -11 -6 -24 -19 -30 -30 -6 -10 -15 -22 -21 -26 -6 -5 -5 -12 3 -20 19 -19
14 -30 -10 -17 -19 10 -26 6 -74 -47 -29 -33 -48 -61 -42 -63 6 -2 14 3 19 10
5 8 9 9 9 3 0 -16 -27 -37 -39 -30 -5 4 -30 -14 -56 -38 -37 -36 -42 -45 -28
-49 12 -3 10 -5 -7 -6 -27 -1 -62 -42 -41 -49 17 -6 13 -20 -6 -18 -10 0 -20
-9 -24 -24 l-7 -25 -7 23 c-4 12 -15 22 -25 22 -12 0 -17 8 -17 25 0 13 3 22
8 19 5 -3 9 -13 9 -22 0 -12 3 -13 11 -5 8 8 5 17 -11 33 -15 15 -25 19 -29
11 -5 -8 -16 -3 -35 14 -36 33 -63 33 -63 0 0 -19 5 -25 21 -25 14 0 17 -3 9
-8 -9 -6 -2 -18 23 -41 19 -18 37 -31 40 -28 3 3 -6 16 -19 28 -17 17 -23 30
-18 43 6 16 10 14 24 -17 10 -20 22 -39 28 -43 7 -4 -37 -53 -105 -119 -64
-61 -116 -118 -116 -126 0 -12 2 -11 10 1 8 13 10 12 10 -3 0 -14 -5 -17 -20
-12 -11 3 -25 1 -32 -5 -7 -5 -25 -19 -40 -30 -16 -13 -25 -27 -21 -35 3 -10
0 -13 -8 -10 -8 3 -40 -21 -73 -55 -33 -33 -62 -57 -65 -53 -3 3 -1 8 6 10 16
6 5 33 -14 33 -7 0 -13 6 -11 13 2 6 -2 14 -7 16 -16 7 -35 29 -35 39 0 16
-30 23 -36 8 -3 -8 11 -29 30 -48 37 -36 44 -54 24 -60 -7 -3 -9 -12 -4 -24 7
-19 8 -19 22 0 8 11 14 14 14 8 0 -7 -13 -26 -30 -42 -16 -16 -30 -34 -30 -40
0 -5 -5 -10 -12 -10 -6 0 -53 -43 -105 -95 -52 -52 -98 -95 -103 -95 -4 0 -15
-11 -23 -23 -8 -13 -36 -44 -61 -70 -25 -25 -46 -48 -46 -52 0 -7 -14 -21 -42
-43 -14 -11 -21 -8 -52 22 -19 20 -44 36 -55 36 -13 0 -18 5 -15 14 6 15 -49
66 -71 66 -7 0 -16 14 -20 31 -4 19 -15 33 -26 36 -10 3 -19 10 -19 15 0 17
-73 88 -91 88 -9 0 -19 7 -23 15 -3 8 -12 15 -20 15 -8 0 -23 15 -34 34 -11
19 -42 47 -69 62 -26 15 -49 28 -49 28 -1 1 -5 11 -8 24 -6 16 -3 22 8 22 9 0
16 6 16 13 0 8 3 7 10 -3 5 -9 5 -19 -2 -27 -6 -8 -8 -16 -5 -20 6 -5 77 62
77 73 0 5 18 22 134 133 26 25 45 50 42 57 -3 7 2 10 15 7 10 -3 19 -1 19 5 0
6 9 14 20 17 11 4 18 11 15 16 -4 5 -1 9 5 9 12 0 85 73 108 106 9 13 14 15
18 7 3 -7 15 -13 26 -13 12 0 18 -3 15 -7 -8 -8 42 -63 57 -63 6 -1 23 -19 38
-40 27 -38 48 -52 48 -30 0 6 7 10 16 10 10 0 15 -8 14 -22 -3 -35 0 -44 9
-30 6 10 11 9 22 -4 9 -12 10 -15 2 -10 -29 17 -10 -14 30 -48 23 -21 57 -51
75 -67 17 -17 32 -26 32 -20 0 6 4 11 8 11 5 0 8 -10 8 -22 -1 -13 4 -22 11
-21 6 2 14 -6 18 -16 7 -23 35 -35 48 -22 15 15 -1 30 -25 23 -14 -3 -19 -2
-14 7 4 6 12 9 17 6 5 -4 9 0 9 8 0 10 -7 13 -19 10 -14 -3 -20 2 -23 21 -3
15 -1 29 4 32 5 3 -4 15 -19 27 -15 12 -30 26 -32 30 -2 5 -7 4 -10 -2 -5 -8
-15 -7 -34 2 -27 12 -46 39 -24 34 15 -3 10 55 -6 65 -16 10 -23 0 -9 -14 14
-14 16 -38 3 -38 -5 0 -13 9 -16 20 -3 11 -12 20 -18 20 -7 0 -21 18 -31 40
-11 22 -23 40 -28 40 -4 0 -8 7 -8 16 0 8 -5 12 -10 9 -6 -3 -13 1 -16 9 -3 9
-12 16 -19 16 -16 0 -28 28 -18 43 4 6 0 8 -10 4 -11 -4 -17 -1 -17 8 0 8 -8
19 -19 24 -10 6 -21 22 -23 36 -5 25 7 35 15 13 2 -8 10 -1 17 15 7 15 18 27
25 27 14 0 78 61 135 131 25 29 49 57 53 60 5 4 50 46 99 95 68 66 92 85 97
74 9 -22 62 -80 74 -80 5 0 27 -20 49 -45 22 -25 43 -45 48 -45 4 0 10 16 12
36 4 31 1 37 -19 45 -14 5 -21 14 -17 20 4 8 0 9 -15 4 -20 -6 -27 3 -22 29 4
18 -21 54 -40 59 -24 6 -25 -11 -1 -30 16 -13 16 -14 -3 -11 -12 2 -23 15 -29
36 -9 32 -8 33 146 181 85 82 178 170 208 195 l53 45 21 -27 c11 -15 23 -28
26 -30z m-662 -170 c12 -12 22 -28 22 -34 0 -7 -10 -1 -21 15 -11 15 -24 25
-29 22 -4 -3 -10 1 -13 9 -8 21 15 14 41 -12z m1266 -365 c3 3 6 -1 6 -9 0 -9
12 -24 28 -34 15 -9 75 -66 135 -126 97 -99 107 -113 107 -146 0 -34 -7 -43
-77 -104 -43 -37 -139 -125 -213 -197 -74 -71 -138 -127 -142 -125 -5 3 -8 -2
-8 -10 0 -10 -6 -13 -17 -9 -12 5 -15 2 -10 -10 4 -11 -9 -29 -41 -57 -26 -23
-113 -107 -194 -186 -131 -128 -178 -164 -178 -135 0 11 -67 62 -84 65 -7 1
-20 8 -28 16 -35 33 -60 51 -65 46 -3 -3 0 -12 7 -21 10 -12 10 -15 -4 -15 -9
0 -16 7 -16 15 0 13 -14 20 -23 13 -1 -2 -9 3 -18 11 -16 16 -19 54 -5 68 5 5
7 1 3 -9 -7 -20 2 -28 41 -33 15 -2 21 -2 14 1 -7 3 -19 19 -27 35 -11 20 -20
26 -32 22 -11 -4 -14 -3 -9 5 8 14 -3 15 -23 3 -10 -7 -11 -13 -1 -31 6 -12 9
-24 6 -28 -3 -3 -6 0 -6 7 0 7 -4 9 -10 6 -5 -3 -10 1 -10 9 0 9 -5 16 -11 16
-5 0 -7 -4 -4 -10 3 -5 2 -10 -4 -10 -17 0 -19 25 -2 43 14 17 14 20 -3 32
-10 8 -16 20 -14 27 3 8 11 3 22 -15 10 -15 25 -27 32 -27 21 0 16 13 -16 38
-24 19 -33 21 -50 12 -17 -9 -20 -17 -15 -41 6 -25 4 -28 -12 -22 -13 4 -10
-3 11 -25 16 -18 38 -34 48 -38 10 -3 17 -8 15 -12 -1 -4 14 -23 35 -43 34
-33 37 -34 41 -15 3 17 5 16 6 -6 1 -19 21 -44 76 -94 41 -37 75 -73 75 -80 0
-7 -20 -27 -45 -45 -36 -26 -44 -37 -39 -53 6 -17 4 -19 -8 -9 -11 10 -17 9
-29 -5 -9 -9 -46 -44 -82 -77 -37 -33 -67 -66 -67 -72 0 -7 -6 -13 -13 -13
-15 0 -107 -94 -107 -110 0 -5 -6 -10 -14 -10 -8 0 -28 -16 -45 -36 l-31 -35
-75 77 c-41 42 -77 85 -80 94 -3 9 -17 23 -30 30 -14 7 -25 18 -25 24 -1 19
-39 58 -50 51 -5 -3 -13 2 -17 11 -3 10 -14 25 -22 34 -9 9 -21 25 -27 36 -17
27 -29 9 -15 -22 8 -19 8 -25 0 -22 -6 2 -18 21 -27 41 -11 30 -12 43 -3 60
11 21 11 21 5 -3 -6 -22 -5 -23 9 -11 9 7 23 11 30 8 15 -6 87 63 87 82 0 7
-4 9 -10 6 -5 -3 -10 1 -10 9 0 18 11 21 26 6 7 -7 23 3 50 33 21 23 40 47 41
52 1 5 11 12 22 17 12 4 21 12 21 17 0 6 -7 8 -16 4 -14 -5 -13 -2 2 16 15 17
20 19 24 6 5 -13 8 -13 21 3 9 10 15 28 14 40 -2 22 9 26 48 23 9 -1 17 2 17
7 0 13 92 102 106 102 7 0 16 -9 19 -20 3 -11 11 -20 17 -20 6 0 8 3 5 7 -4 3
0 15 10 25 15 17 15 18 -5 18 -12 0 -22 4 -22 10 0 5 7 6 17 3 10 -4 14 -2 10
4 -4 6 0 14 9 17 8 3 12 11 9 16 -6 10 141 160 157 160 4 0 9 8 12 18 3 10 20
26 36 36 31 18 33 39 2 30 -13 -5 -14 -4 -3 4 7 5 11 14 7 20 -3 6 -2 13 4 17
5 3 10 -3 10 -15 0 -18 3 -19 23 -9 12 7 49 39 83 71 33 32 64 58 68 58 5 0
17 -11 27 -25 13 -15 26 -22 36 -18 12 5 15 2 10 -9 -8 -21 58 -97 73 -82 13
13 -17 57 -33 48 -7 -4 -8 -3 -4 2 5 5 10 7 11 4 4 -7 36 21 36 31 0 5 -7 9
-15 9 -8 0 -15 5 -15 11 0 6 -7 8 -17 5 -10 -4 -23 1 -35 13 -22 24 -23 35 -3
27 30 -11 9 19 -30 43 -20 12 -20 12 1 6 17 -4 42 18 134 117 142 154 196 215
240 271 l35 44 51 -43 c28 -24 54 -40 58 -37z m-1571 -267 c-4 -16 -9 -18 -24
-9 -23 12 -19 24 9 26 15 1 19 -3 15 -17z m1101 11 c8 -12 -3 -41 -15 -41 -5
0 -9 11 -9 25 0 25 14 34 24 16z m-1161 -77 c-3 -8 -12 -13 -20 -10 -8 3 -19
6 -24 6 -21 0 1 16 25 18 19 1 24 -2 19 -14z m-33 -29 c0 -3 -9 -16 -20 -27
-16 -17 -23 -19 -32 -10 -10 10 -8 14 10 18 12 4 22 10 22 15 0 5 5 9 10 9 6
0 10 -2 10 -5z m1944 -41 c-8 -20 -11 -33 -5 -30 17 11 22 -12 7 -27 -8 -8
-13 -17 -10 -19 3 -3 1 -31 -4 -62 -6 -39 -6 -56 2 -57 6 0 6 -3 -1 -6 -8 -3
-11 -14 -7 -29 4 -15 2 -24 -6 -24 -6 0 -8 -5 -5 -10 4 -6 2 -17 -4 -23 -5 -7
-10 -22 -9 -32 0 -11 -13 -57 -30 -103 -17 -45 -34 -103 -38 -127 -3 -24 -12
-50 -20 -56 -8 -6 -14 -16 -14 -21 0 -6 -11 -32 -24 -58 -17 -34 -21 -50 -13
-53 9 -3 8 -8 -2 -18 -9 -9 -11 -9 -7 -1 4 6 2 12 -4 12 -6 0 -13 -8 -17 -17
-16 -45 -109 -165 -166 -214 -76 -67 -133 -109 -145 -109 -5 0 -20 -9 -33 -20
-38 -32 -42 -34 -74 -50 -16 -8 -48 -26 -70 -39 -22 -13 -40 -23 -40 -22 0 1
-17 -5 -37 -13 -21 -9 -44 -16 -53 -16 -8 0 -15 -4 -15 -10 0 -9 -69 -33 -100
-35 -8 0 -42 -9 -75 -19 -60 -19 -76 -22 -150 -31 -22 -3 -67 -10 -100 -16
-97 -16 -103 -16 -114 -10 -6 4 19 38 59 81 39 41 103 110 143 153 39 42 77
83 83 90 7 6 32 28 58 47 25 19 45 41 46 48 0 6 3 12 8 12 12 0 81 68 75 74
-13 12 14 5 54 -14 23 -11 43 -24 45 -29 1 -5 12 -11 22 -13 15 -2 21 5 28 31
13 46 -13 75 -59 68 -18 -3 -33 -2 -33 4 0 5 7 9 15 9 8 0 15 4 15 9 0 6 96
109 238 253 4 4 19 18 34 31 15 13 25 27 21 30 -3 4 -2 7 3 7 5 0 26 16 48 35
30 27 43 32 57 25 26 -15 27 -13 35 28 6 34 74 131 99 141 10 4 178 165 254
243 45 47 54 47 35 2z m-896 -11 c-2 -14 -8 -28 -15 -30 -8 -3 -11 5 -9 24 4
34 4 33 17 33 6 0 9 -12 7 -27z m-39 -47 c11 -13 8 -16 -36 -26 -4 -1 -9 4
-12 11 -2 7 1 9 8 5 6 -4 11 -1 11 8 0 20 14 21 29 2z m-1309 -175 c0 -6 -5
-13 -11 -17 -6 -3 -19 -20 -30 -38 -17 -28 -19 -29 -19 -8 0 12 5 22 10 22 6
0 10 7 10 15 0 8 7 15 16 15 8 0 12 5 9 10 -3 6 -1 10 4 10 6 0 11 -4 11 -9z
m-584 -70 c-9 -10 -13 -22 -9 -27 4 -5 -4 1 -17 13 -20 18 -22 25 -12 35 11
11 12 10 7 -4 -5 -13 -2 -18 10 -18 12 0 15 5 11 16 -9 23 5 40 16 20 7 -12 5
-23 -6 -35z m1502 -121 c-32 -31 -48 -38 -48 -20 0 6 5 10 10 10 6 0 9 6 8 13
-2 6 5 11 14 9 9 -1 19 2 23 8 3 5 10 10 15 10 6 0 -4 -13 -22 -30z m-88 -80
c0 -19 -5 -25 -23 -27 -15 -3 -15 0 -5 17 14 21 28 26 28 10z m-710 -97 c0 -7
-4 -13 -10 -13 -5 0 -10 7 -10 15 0 8 -10 19 -21 26 -17 9 -19 13 -8 20 15 9
48 -24 49 -48z m1110 -78 c0 -9 10 -15 23 -16 12 0 16 -3 10 -6 -20 -8 -15
-22 12 -35 15 -7 24 -17 21 -25 -3 -7 -1 -13 3 -13 5 0 13 12 18 27 l10 28 13
-25 c9 -16 9 -25 2 -28 -6 -2 -9 -9 -6 -16 3 -7 -3 -19 -12 -27 -10 -8 -15 -9
-11 -2 5 7 -11 27 -38 50 -25 20 -43 43 -41 50 3 8 -3 13 -15 13 -11 0 -18 4
-14 9 3 6 -3 14 -12 20 -16 9 -14 10 10 11 17 0 27 -5 27 -15z m-567 -7 c-2
-5 -11 -8 -19 -8 -8 0 -14 -9 -14 -20 0 -15 -7 -20 -25 -20 -13 0 -29 -8 -34
-17 -9 -15 -10 -16 -11 -2 0 19 44 62 53 52 4 -3 7 1 7 9 0 10 8 15 24 14 13
0 22 -4 19 -8z m807 -159 c13 -9 12 -10 -2 -5 -10 3 -18 1 -18 -3 0 -5 5 -11
12 -13 6 -2 8 -9 4 -16 -11 -19 -34 -2 -32 24 1 26 12 30 36 13z m-905 -210
c4 -12 12 -18 21 -15 10 4 14 -2 14 -19 0 -18 4 -23 15 -19 8 4 15 1 15 -6 0
-6 -5 -8 -11 -4 -7 4 -9 -1 -7 -12 2 -11 11 -18 20 -18 9 1 19 -5 22 -13 3 -8
1 -11 -4 -8 -14 8 -13 -8 1 -22 9 -9 7 -10 -10 -6 -14 3 -25 19 -33 44 -6 22
-15 39 -20 39 -4 0 -16 16 -25 35 -9 19 -20 32 -24 29 -4 -2 -10 0 -14 6 -3 5
3 10 14 10 11 0 22 -9 26 -21z"/>
<path d="M1426 2599 c-3 -17 -6 -95 -6 -174 0 -128 2 -142 18 -142 25 0 30 14
21 56 -4 20 -9 54 -10 76 -3 39 -2 40 25 37 15 -2 40 -14 54 -28 15 -13 34
-31 43 -39 21 -20 40 -19 32 0 -3 9 2 24 12 35 16 18 15 19 -14 34 -16 9 -39
16 -51 16 -27 0 -25 5 12 38 24 22 31 37 30 62 -1 42 -15 50 -82 46 -30 -2
-60 1 -66 6 -8 5 -13 -2 -18 -23z m131 -45 c4 -13 -50 -38 -69 -32 -7 3 -18
-2 -25 -11 -10 -13 -12 -10 -13 21 0 27 5 37 18 40 27 6 85 -6 89 -18z"/>
<path d="M1007 2154 c-1 -1 -24 -4 -51 -7 -27 -4 -50 -8 -52 -10 -2 -2 1 -19
6 -38 6 -18 10 -78 10 -131 0 -90 2 -98 19 -98 11 0 26 -3 35 -6 11 -4 16 0
16 12 1 17 2 17 13 4 12 -15 100 -23 91 -9 -2 4 4 5 15 2 18 -5 34 9 37 35 1
6 -1 10 -6 7 -4 -3 -10 5 -14 18 -4 15 -8 18 -14 10 -4 -7 -37 -16 -71 -20
-50 -5 -65 -10 -69 -25 -2 -10 -9 -18 -14 -18 -6 0 -7 11 -4 24 4 15 1 26 -7
29 -9 3 -9 7 2 20 10 12 12 36 8 87 l-5 71 51 -2 c47 -2 121 7 139 18 4 2 5
10 2 18 -4 11 -22 14 -71 12 -35 -1 -65 -3 -66 -3z"/>
<path d="M1023 2054 c-7 -3 -11 -11 -9 -17 1 -7 1 -9 -1 -4 -10 17 -33 5 -33
-17 0 -25 25 -43 34 -23 3 9 5 9 5 0 2 -21 49 -15 61 8 10 17 8 24 -11 40 -23
20 -26 21 -46 13z"/>
<path d="M457 1654 c-4 -4 -5 -16 -2 -28 7 -31 14 -122 14 -196 1 -61 2 -63
18 -47 10 9 18 32 20 49 1 18 4 51 6 73 3 22 2 44 -1 49 -3 5 -7 27 -9 50 -4
44 -27 69 -46 50z"/>
<path d="M595 1423 c-11 -2 -30 -6 -43 -9 -17 -3 -22 -10 -20 -27 2 -12 9 -21
17 -19 8 2 39 5 69 8 65 5 72 9 72 35 0 16 -7 19 -37 18 -21 -1 -47 -3 -58 -6z"/>
<path d="M2033 2118 c-41 -9 -57 -31 -30 -40 23 -9 141 -1 145 10 4 13 -37 42
-58 41 -8 -1 -34 -5 -57 -11z"/>
<path d="M1990 2048 c0 -7 -2 -66 -4 -130 -3 -65 -1 -118 4 -118 5 0 7 -9 5
-20 -5 -25 7 -26 29 -1 14 15 16 31 11 87 -6 77 -14 138 -21 172 -5 23 -24 31
-24 10z"/>
<path d="M2075 1980 c-21 -4 -31 -12 -33 -28 -3 -19 1 -22 31 -22 48 0 67 9
67 30 0 21 -23 28 -65 20z"/>
<path d="M1761 1821 c-7 -11 -9 -21 -5 -21 4 0 -1 -10 -12 -21 -19 -22 -19
-22 5 -14 20 6 23 4 18 -9 -4 -11 10 -32 43 -66 53 -54 60 -58 60 -34 0 8 4
13 9 10 5 -3 7 -14 4 -24 -2 -10 7 -31 21 -47 27 -31 30 -28 27 25 l-1 25 16
-22 c17 -24 39 -30 49 -13 8 13 -19 40 -39 40 -10 0 -13 6 -9 17 4 10 2 14 -4
10 -6 -4 -13 3 -16 14 -4 14 -11 20 -20 16 -10 -4 -17 3 -21 19 -4 13 -13 24
-21 24 -17 0 -20 -16 -5 -25 5 -3 15 -15 21 -26 10 -20 10 -20 -15 -4 -14 10
-26 21 -26 26 0 5 -8 6 -17 3 -13 -4 -11 0 5 12 12 9 22 23 22 30 0 20 -13 17
-30 -6 -10 -14 -17 -17 -27 -8 -7 6 -13 18 -13 27 1 14 3 13 15 -3 13 -17 15
-17 21 -3 3 10 -4 27 -19 43 -25 27 -25 27 -36 5z"/>
<path d="M1570 1663 c0 -5 -21 -8 -47 -7 -49 2 -83 -9 -83 -26 0 -6 6 -10 14
-10 16 0 26 -69 26 -177 0 -52 4 -76 16 -87 21 -21 37 -11 24 15 -6 11 -7 26
-2 37 9 18 8 101 -2 169 l-6 43 51 -5 c29 -3 56 -8 60 -11 10 -6 69 26 69 37
0 11 -38 21 -50 14 -5 -3 -19 -1 -31 6 -17 9 -20 8 -13 -3 6 -11 5 -11 -9 1
-9 7 -17 9 -17 4z"/>
<path d="M1642 1553 c-23 -2 -40 -8 -37 -14 4 -5 -5 -9 -20 -9 -27 0 -44 -25
-29 -40 10 -10 56 -2 50 9 -2 3 18 4 45 3 31 -3 49 0 49 7 0 6 -5 11 -11 11
-6 0 -8 9 -4 20 3 11 5 19 3 18 -2 -1 -22 -3 -46 -5z"/>
<path d="M1650 1440 c0 -8 -11 -11 -30 -8 -16 3 -30 1 -30 -3 0 -3 -9 -9 -20
-12 -12 -3 -20 -14 -20 -25 0 -25 18 -38 32 -24 8 8 15 6 26 -5 11 -10 17 -12
20 -4 2 6 8 11 13 11 6 0 7 -4 4 -10 -8 -12 5 -13 24 -1 7 5 14 26 15 47 1 29
-3 39 -16 42 -10 2 -18 -2 -18 -8z"/>
<path d="M1056 1140 c-50 -4 -72 -10 -80 -22 -15 -24 -3 -32 45 -30 l42 2 -8
-48 c-9 -48 -9 -167 -1 -189 3 -6 14 -9 26 -6 12 3 17 10 13 17 -7 10 -8 39
-4 173 l1 41 39 -5 c42 -6 50 1 56 47 4 28 2 30 -28 27 -18 -1 -63 -4 -101 -7z"/>
<path d="M2472 1634 c-14 -26 -2 -300 14 -326 3 -5 14 -3 25 2 16 9 19 18 14
58 -6 50 -13 86 -21 115 -5 15 -2 16 20 6 14 -7 26 -18 26 -25 0 -7 9 -18 20
-24 11 -6 31 -35 46 -65 23 -50 44 -71 44 -45 0 6 6 10 14 10 20 0 29 17 17
32 -6 7 -29 35 -51 62 -21 28 -46 54 -55 58 -26 15 -16 32 40 68 52 33 72 56
60 68 -3 3 -13 -2 -23 -11 -10 -10 -25 -17 -33 -17 -19 0 -89 -47 -111 -74
-17 -20 -18 -19 -18 39 0 70 -12 99 -28 69z"/>
<path d="M2250 1302 c0 -9 15 -31 33 -47 18 -17 33 -34 35 -40 2 -10 21 -14
23 -5 4 13 -43 90 -60 100 -27 14 -31 13 -31 -8z"/>
<path d="M2288 1224 c-23 -23 17 -94 53 -94 11 0 18 -4 15 -9 -5 -8 66 -81 79
-81 8 0 -8 65 -18 71 -5 4 -5 9 2 13 6 4 11 11 11 15 0 10 -51 33 -58 26 -3
-3 -14 2 -24 12 -13 11 -18 12 -18 3 0 -20 -28 8 -32 32 -2 11 -6 16 -10 12z"/>
<path d="M2153 1136 c4 -9 -5 -12 -29 -12 -19 1 -34 5 -34 10 0 11 -46 -1 -76
-21 -13 -8 -27 -27 -30 -42 -4 -14 -13 -34 -22 -43 -13 -15 -13 -24 -2 -64 7
-25 25 -57 38 -70 30 -27 96 -41 116 -25 11 9 15 9 19 -1 4 -10 6 -10 6 0 1 6
7 12 14 12 17 0 49 34 40 43 -3 4 1 15 11 25 9 11 14 26 10 36 -4 11 -1 16 10
16 9 0 16 8 16 20 0 11 -5 20 -11 20 -6 0 -9 7 -5 15 3 8 1 15 -5 15 -5 0 -9
8 -7 17 2 10 -3 18 -9 19 -26 3 -28 4 -16 12 8 5 3 11 -14 19 -20 9 -24 9 -20
-1z m-53 -29 c23 6 65 -36 74 -73 10 -37 -11 -102 -38 -119 -34 -23 -104 -10
-118 21 -6 13 -15 24 -20 24 -5 0 -4 9 2 21 7 11 12 41 12 65 0 32 4 44 15 44
8 0 22 7 31 16 9 10 18 12 20 6 1 -5 12 -8 22 -5z"/>
<path d="M2440 1120 c0 -5 5 -12 10 -15 8 -5 7 -11 -1 -21 -9 -11 -7 -15 6
-21 23 -8 49 25 35 43 -13 15 -50 25 -50 14z"/>
<path d="M1534 677 c-3 -9 -14 -17 -24 -17 -11 0 -22 -6 -27 -12 -10 -16 -11
-128 -1 -128 4 0 3 -13 -2 -29 -5 -19 -4 -33 3 -41 9 -9 9 -11 1 -7 -15 8 -26
-31 -12 -39 6 -4 8 -21 5 -38 -7 -48 1 -58 28 -34 14 12 22 24 20 28 -3 4 -7
72 -9 151 -3 116 -2 140 8 127 7 -10 25 -22 40 -28 24 -9 27 -14 21 -38 -4
-15 -8 -33 -8 -40 0 -7 -6 -11 -13 -8 -6 2 -15 2 -18 -1 -6 -6 37 -43 51 -43
4 0 39 -18 77 -40 38 -22 71 -38 73 -36 3 2 0 13 -6 24 -9 17 -8 21 7 25 10 2
-5 10 -35 20 -29 9 -62 25 -74 35 -18 17 -19 23 -9 43 11 19 10 24 -6 36 -15
11 -16 15 -5 22 17 11 5 51 -15 51 -9 0 -12 5 -8 11 4 8 -1 9 -16 4 -15 -5
-25 -2 -31 6 -6 11 -9 10 -15 -4z"/>
<path d="M88 1004 c-23 -23 12 -75 36 -55 18 15 63 4 75 -18 18 -30 25 -1 8
34 -11 24 -21 33 -32 29 -8 -3 -12 -10 -9 -15 9 -15 -6 -10 -23 6 -11 12 -19
13 -28 5 -10 -8 -14 -7 -17 5 -1 9 -6 13 -10 9z"/>
<path d="M122 938 c-8 -8 -7 -15 6 -25 16 -14 16 -14 -3 -8 -16 5 -18 4 -7 -6
6 -7 12 -21 12 -30 0 -9 7 -20 16 -23 22 -8 33 3 14 14 -8 5 -11 12 -8 16 4 3
14 -1 23 -10 14 -13 55 -14 72 -2 8 6 -12 46 -24 46 -9 0 -11 -5 -7 -12 5 -9
2 -9 -9 1 -15 12 -17 11 -18 -5 0 -14 -5 -10 -16 13 -18 36 -35 47 -51 31z"/>
<path d="M172 831 c-11 -7 -11 -11 2 -23 8 -9 12 -19 8 -24 -4 -5 0 -3 8 3 8
6 29 9 47 7 27 -3 31 -1 26 14 -3 9 -3 14 1 10 4 -3 8 -12 10 -20 1 -7 6 -19
10 -27 7 -11 5 -13 -10 -6 -38 16 -60 16 -73 2 -10 -13 -8 -19 11 -36 12 -12
27 -36 33 -53 11 -35 37 -52 28 -19 -6 23 3 26 27 11 13 -9 13 -10 0 -10 -9 0
-16 -9 -17 -20 -1 -16 3 -20 17 -15 10 3 21 1 25 -5 3 -6 -3 -10 -14 -10 -30
0 -26 -13 19 -61 34 -36 41 -40 55 -29 24 20 75 21 76 1 0 -12 3 -11 10 5 9
17 4 27 -25 59 -20 21 -36 45 -36 51 0 7 -9 19 -19 26 -11 8 -25 26 -32 41 -7
15 -16 27 -21 27 -4 0 -8 6 -8 14 0 8 -7 16 -15 20 -8 3 -15 12 -15 21 0 28
-38 55 -77 55 -21 0 -44 -4 -51 -9z m113 -115 c-21 -31 -30 -33 -32 -5 -1 12
6 23 20 28 30 12 32 7 12 -23z m69 -78 c-6 -20 12 -25 19 -5 2 6 8 8 13 4 5
-4 2 -12 -6 -17 -14 -9 -7 -14 13 -11 13 2 37 -26 37 -43 0 -9 -4 -16 -10 -16
-5 0 -7 7 -4 15 4 10 0 15 -14 15 -11 0 -22 3 -24 8 -1 4 -19 20 -38 36 -27
22 -30 27 -12 22 25 -8 27 -4 11 27 -10 21 -10 21 5 3 9 -11 14 -28 10 -38z
m7 -49 c7 -15 8 -24 1 -31 -15 -15 -44 16 -36 36 8 22 21 20 35 -5z"/>
<path d="M1433 93 c-3 -10 -8 -21 -10 -25 -2 -5 1 -8 6 -8 6 0 11 8 11 18 0
14 4 12 21 -8 l20 -25 -16 33 c-18 37 -23 39 -32 15z"/>
</g>
</svg>
