<svg version="1.1" id="Layer_1" xmlns="http://www.w3.org/2000/svg" xmlns:xlink="http://www.w3.org/1999/xlink" x="0px" y="0px"
	 width="100%" viewBox="0 0 500 500" enable-background="new 0 0 500 500" xml:space="preserve">
<path fill="#000000" opacity="1.000000" stroke="none" 
	d="
M331.000000,501.000000 
	C220.666687,501.000000 110.833389,501.000000 1.000059,501.000000 
	C1.000039,334.333405 1.000039,167.666794 1.000020,1.000148 
	C167.666565,1.000099 334.333130,1.000099 500.999756,1.000049 
	C500.999847,167.666519 500.999847,334.333038 500.999939,500.999786 
	C444.500000,501.000000 388.000000,501.000000 331.000000,501.000000 
M249.839600,111.793137 
	C250.917435,111.850021 251.995255,111.906906 252.993988,112.902725 
	C252.987335,125.109108 252.946854,137.315689 253.017838,149.521606 
	C253.026489,151.008148 253.634460,152.491211 254.788666,153.986099 
	C256.155579,154.041382 257.522461,154.096664 258.967682,155.056000 
	C258.978088,167.009750 258.938416,178.963989 259.057068,190.916656 
	C259.073456,192.566483 259.874115,194.208527 261.027740,195.856094 
	C261.998444,195.924576 262.969177,195.993057 263.962769,196.990799 
	C263.966919,207.619019 264.068176,218.248611 263.918640,228.874664 
	C263.871033,232.257721 265.099304,233.461868 268.696198,232.874710 
	C268.696198,232.874710 269.068146,232.950241 269.062195,233.893738 
	C269.061371,246.045120 269.027039,258.196716 269.102783,270.347595 
	C269.112091,271.837646 269.710663,273.324005 270.843170,274.890503 
	C271.932709,274.918732 273.022278,274.946960 274.049835,275.913727 
	C274.044922,287.730957 274.006622,299.548370 274.076660,311.365173 
	C274.085602,312.875916 274.659302,314.383331 275.413879,316.497009 
	C276.898407,316.723083 278.382904,316.949158 279.959717,318.073822 
	C279.910156,324.648682 279.860596,331.223511 278.984680,337.920166 
	C276.135406,337.726440 274.805847,338.832367 274.953003,341.905701 
	C275.133118,345.666565 274.919098,349.446259 273.987854,353.083832 
	C270.656952,353.011139 267.326050,352.938446 263.984589,352.044769 
	C263.009216,351.036774 262.083588,349.221527 261.050079,349.157867 
	C256.072876,348.851379 251.064240,349.108612 246.071472,348.980682 
	C243.139877,348.905548 242.839371,350.629364 242.367493,352.994568 
	C241.973190,353.028259 241.578873,353.061920 240.295380,353.045593 
	C237.944611,353.679047 234.082657,353.707275 233.539062,355.064545 
	C232.155502,358.518982 229.676788,359.054352 226.990173,358.894409 
	C223.132980,358.664886 221.484314,360.025543 220.976730,363.941803 
	C218.199066,363.941803 215.421402,363.941803 212.372589,363.941803 
	C212.203369,366.044861 212.086700,367.494751 211.081055,369.058258 
	C207.777420,369.311920 204.473785,369.565582 201.079391,370.638611 
	C201.040451,371.737122 201.001511,372.835602 200.133987,373.989471 
	C198.511765,374.310394 196.865601,374.987640 195.272141,374.880524 
	C191.565964,374.631500 190.590240,376.469604 190.488586,379.840607 
	C190.488586,379.840607 190.032501,380.011230 189.117432,380.013458 
	C187.647186,380.012146 186.153778,380.177856 184.711075,379.977844 
	C180.584457,379.405731 179.458923,381.419830 180.006836,385.005463 
	C180.006836,385.005463 180.079330,385.055817 179.226028,385.043213 
	C174.389359,384.497528 174.689987,387.363556 175.405075,390.772369 
	C176.954697,390.960388 178.399475,391.135712 179.923935,392.058167 
	C179.962616,393.059509 180.001282,394.060883 180.501526,395.767700 
	C183.764816,395.700623 187.028091,395.633545 190.694534,395.639343 
	C190.694534,395.639343 191.014191,395.895569 191.010803,396.768677 
	C190.588409,399.935577 191.823532,401.412781 195.149109,401.074158 
	C197.115417,400.873901 199.111938,400.970276 201.031006,401.000824 
	C201.031006,401.000824 201.059845,400.912476 201.025818,401.774017 
	C200.624054,404.794067 201.704239,406.347321 204.985977,406.029816 
	C206.571762,405.876434 208.189484,406.052948 210.101807,406.780975 
	C211.093170,408.529449 212.084518,410.277893 213.242691,412.320587 
	C216.036011,412.320587 218.997879,412.320587 221.989899,413.130310 
	C221.652481,416.120300 223.017029,417.280090 225.957108,417.024658 
	C228.061508,416.841797 230.187256,416.904724 232.672226,416.837250 
	C232.672226,416.837250 232.992615,417.020996 232.998398,417.873962 
	C232.694153,420.705933 233.617096,422.333832 236.815018,422.023254 
	C238.620239,421.847961 240.449692,421.922302 242.651215,421.895813 
	C242.651215,421.895813 242.980698,422.091400 242.960144,422.944214 
	C242.600082,425.868988 243.709137,427.266418 246.830399,427.033478 
	C249.300415,426.849121 251.818787,426.780029 254.273865,427.045868 
	C258.548889,427.508789 259.549500,425.461304 258.933197,421.907593 
	C258.933197,421.907593 258.772583,421.811768 259.704803,421.894226 
	C261.492065,421.930603 263.285950,421.881958 265.065216,422.020752 
	C268.937958,422.322906 270.523712,420.623596 269.897552,416.907837 
	C269.897552,416.907837 269.793488,416.860077 270.727051,416.936340 
	C274.180359,415.954468 280.238739,420.195251 281.072388,412.081696 
	C283.066620,412.050049 285.123352,412.305878 287.034058,411.890228 
	C288.411469,411.590546 290.622986,410.469269 290.684967,409.589294 
	C290.945557,405.889404 293.220215,405.710938 295.852936,406.019562 
	C299.542328,406.452026 301.649506,405.336639 301.946442,401.108368 
	C305.115356,401.108368 308.284302,401.108368 311.602509,401.108368 
	C311.823944,398.941406 311.970642,397.506012 312.956604,396.001465 
	C315.886078,395.832123 318.815552,395.662781 321.904297,395.484253 
	C321.986755,393.742188 322.048859,392.431183 322.943054,391.035797 
	C328.393005,391.499512 326.609589,387.427734 327.025940,384.638336 
	C327.605560,380.755157 325.638885,379.621826 322.113953,379.028442 
	C322.380981,376.119324 321.275757,374.691681 318.142700,374.972809 
	C316.169586,375.149872 314.160034,374.920319 312.082184,374.003143 
	C311.793365,370.740540 311.504578,367.477966 312.016296,364.080811 
	C313.368164,364.018524 314.720001,363.956238 316.705444,363.369904 
	C316.817139,358.941528 317.094238,354.509308 316.991608,350.085907 
	C316.898743,346.084106 316.391235,342.091919 315.266998,338.064209 
	C312.189758,338.349304 311.837006,336.354950 311.957916,333.087189 
	C311.968201,329.816193 311.743591,326.523376 312.045471,323.279510 
	C312.467285,318.746826 310.925720,316.384430 306.037262,315.894287 
	C306.025299,303.980560 305.889679,292.064941 306.075012,280.154297 
	C306.132263,276.475067 305.325928,274.379883 301.087555,273.974731 
	C301.063629,262.047424 301.079163,250.119751 300.971893,238.193192 
	C300.956390,236.470108 300.350891,234.752350 299.229065,233.008011 
	C298.177063,233.009155 297.125031,233.010300 295.971527,232.076874 
	C295.970001,219.990128 295.997986,207.903198 295.930603,195.816818 
	C295.921906,194.257965 295.419128,192.701874 294.379974,191.083420 
	C293.237518,190.693924 292.095062,190.304428 290.982819,188.989761 
	C290.985352,177.567780 291.022644,166.145584 290.948853,154.724106 
	C290.939056,153.206940 290.364929,151.693436 289.608795,149.581406 
	C288.135712,149.356400 286.662659,149.131393 285.030701,148.291946 
	C284.988831,147.870911 284.946960,147.449890 284.961670,146.089508 
	C284.976074,134.710022 284.831360,123.326889 285.091888,111.953041 
	C285.182007,108.020042 283.917145,106.442719 279.926361,106.589149 
	C279.926361,106.589149 279.841461,106.208260 279.943726,105.249756 
	C279.941467,97.122185 279.939240,88.994621 279.453552,80.304153 
	C278.162048,80.113029 276.870544,79.921906 275.655762,79.742134 
	C275.113525,78.075089 274.624359,76.571243 273.175690,75.024551 
	C268.412354,75.014450 263.631348,75.253334 258.891083,74.917717 
	C254.891510,74.634537 253.473312,76.198860 253.141464,80.015495 
	C251.783615,80.043625 250.425751,80.071747 248.249039,80.405167 
	C248.172821,90.222290 248.077469,100.039391 248.064377,109.856598 
	C248.063538,110.496979 248.693924,111.138199 249.839600,111.793137 
z"/>
<path fill="#ECEBDB" opacity="1.000000" stroke="none" 
	d="
M191.014191,395.895569 
	C191.014191,395.895569 190.694534,395.639343 190.545685,395.505829 
	C190.396851,395.372314 190.250183,395.207092 190.273956,394.752380 
	C190.808380,391.148499 189.671249,389.728485 186.312912,390.148895 
	C184.211548,390.411957 182.057648,390.255402 179.975616,389.851868 
	C180.042389,387.963043 180.060852,386.509430 180.079330,385.055817 
	C180.079330,385.055817 180.006836,385.005463 180.482208,384.993988 
	C183.941238,384.982513 186.924911,384.982513 190.032501,384.982513 
	C190.032501,382.902100 190.032501,381.456665 190.032501,380.011230 
	C190.032501,380.011230 190.488586,379.840607 191.125458,379.864563 
	C193.147339,379.976135 194.532318,380.063782 195.913391,380.577148 
	C195.501114,383.978516 196.625473,385.334930 199.779007,385.010010 
	C201.855606,384.796051 203.972153,384.969543 206.070801,384.969543 
	C205.864441,385.420258 205.658081,385.871002 205.451706,386.321716 
	C206.821655,387.565308 208.008560,389.424805 209.606949,389.899811 
	C211.701736,390.522430 214.121216,390.052521 216.396072,390.052521 
	C216.867783,392.045044 217.198120,393.440430 217.561035,394.973450 
	C220.707855,395.159515 223.637863,395.332764 226.783554,395.518738 
	C226.559998,404.535919 233.918854,399.229980 237.633682,401.710632 
	C237.844467,402.829590 238.108658,404.232025 238.447723,406.031891 
	C241.781097,406.031891 244.877869,406.031891 248.314911,406.031891 
	C248.148117,411.137787 251.171310,411.281525 254.823929,411.250397 
	C259.562958,411.210022 264.307007,411.757690 269.031372,412.411011 
	C269.273712,414.133240 269.533600,415.496674 269.793488,416.860077 
	C269.793488,416.860077 269.897552,416.907837 269.419861,416.839172 
	C265.629883,416.770508 262.317566,416.770508 258.772583,416.770508 
	C258.772583,418.911957 258.772583,420.361847 258.772583,421.811768 
	C258.772583,421.811768 258.933197,421.907593 258.417175,421.868469 
	C252.927643,421.916656 247.954178,422.004028 242.980698,422.091400 
	C242.980698,422.091400 242.651215,421.895813 242.614014,421.523743 
	C242.745895,419.817139 242.914963,418.482635 243.100143,417.020996 
	C239.378662,417.020996 236.185638,417.020996 232.992615,417.020996 
	C232.992615,417.020996 232.672226,416.837250 232.397583,416.430603 
	C232.039490,414.601257 231.956055,413.178558 231.864777,411.622162 
	C228.435364,411.622162 225.201721,411.622162 222.011993,411.145081 
	C221.983261,409.145416 221.910599,407.622772 221.864700,406.661072 
	C217.886093,405.992554 214.645691,405.448059 211.486801,404.597351 
	C211.514404,403.875610 211.460480,403.460144 211.555634,402.794250 
	C211.132095,402.039917 210.559479,401.536011 209.542206,400.982330 
	C206.418304,400.925873 203.739075,400.919159 201.059845,400.912476 
	C201.059845,400.912476 201.031006,401.000824 201.023682,400.516235 
	C200.919907,398.617157 200.823456,397.202667 200.734329,395.895569 
	C197.219955,395.895569 194.117081,395.895569 191.014191,395.895569 
z"/>
<path fill="#674738" opacity="1.000000" stroke="none" 
	d="
M249.067902,80.099876 
	C250.425751,80.071747 251.783615,80.043625 254.020081,80.030357 
	C261.096100,80.045219 267.293518,80.045219 273.624237,80.045219 
	C273.837982,77.962906 273.986603,76.515152 274.135193,75.067398 
	C274.624359,76.571243 275.113525,78.075089 275.655762,79.742134 
	C276.870544,79.921906 278.162048,80.113029 279.266510,80.623314 
	C275.995972,80.568123 274.580719,81.758316 274.855896,85.022461 
	C275.030884,87.098160 274.748047,89.212456 274.526978,91.329674 
	C274.383453,91.349907 274.107239,91.260529 273.905457,91.115105 
	C273.703644,90.969681 273.220581,90.850876 272.756409,90.832535 
	C269.524933,90.875465 266.757629,90.936737 263.583649,90.974380 
	C260.594055,89.932053 258.011078,88.913361 255.428131,87.894676 
	C255.566208,87.492645 255.704285,87.090622 255.842377,86.688599 
	C255.018524,87.166847 254.194687,87.645103 253.253845,87.692589 
	C252.574677,84.699776 254.867279,80.326416 249.152908,80.788612 
	C249.130020,80.558395 249.067902,80.099876 249.067902,80.099876 
z"/>
<path fill="#1C1C20" opacity="1.000000" stroke="none" 
	d="
M258.889374,154.151947 
	C257.522461,154.096664 256.155579,154.041382 254.406097,153.514877 
	C253.983124,139.357178 253.942703,125.670692 254.309357,111.970993 
	C256.063751,112.027733 257.411041,112.097687 258.812622,112.620300 
	C258.953674,125.012100 259.040375,136.951233 259.075195,149.305634 
	C259.052948,151.098251 259.082642,152.475586 259.057861,153.928650 
	C259.003418,154.004364 258.889374,154.151947 258.889374,154.151947 
z"/>
<path fill="#1C1C20" opacity="1.000000" stroke="none" 
	d="
M279.867432,317.175232 
	C278.382904,316.949158 276.898407,316.723083 275.172241,315.733582 
	C274.886627,301.643982 274.842621,288.317810 275.220886,274.963989 
	C277.046570,274.985138 278.449951,275.033905 279.891632,275.544617 
	C279.969788,287.656525 280.009644,299.306427 280.009277,311.383545 
	C280.000092,313.514099 280.031128,315.217499 280.015045,316.985687 
	C279.967957,317.050476 279.867432,317.175232 279.867432,317.175232 
z"/>
<path fill="#251F1B" opacity="1.000000" stroke="none" 
	d="
M290.952606,189.914932 
	C292.095062,190.304428 293.237518,190.693924 294.737854,191.570786 
	C295.020752,205.698349 294.945740,219.338562 294.521667,232.931992 
	C292.825867,232.536713 291.479065,232.188187 290.140259,231.381180 
	C290.103394,217.584305 290.058594,204.245895 290.005463,190.667435 
	C289.997131,190.427368 290.022278,189.947617 290.256714,189.992279 
	C290.491150,190.036957 290.952606,189.914932 290.952606,189.914932 
z"/>
<path fill="#14181B" opacity="1.000000" stroke="none" 
	d="
M301.237976,274.882599 
	C305.325928,274.379883 306.132263,276.475067 306.075012,280.154297 
	C305.889679,292.064941 306.025299,303.980560 306.022675,316.428070 
	C306.008087,316.961853 305.893860,317.122375 305.492950,317.092285 
	C303.752197,317.003601 302.412354,316.945007 301.032654,316.426392 
	C300.927795,303.999237 300.862823,292.032135 300.858643,279.653442 
	C300.910645,277.856567 300.901855,276.471191 300.980530,275.037170 
	C301.068024,274.988525 301.237976,274.882599 301.237976,274.882599 
z"/>
<path fill="#14181B" opacity="1.000000" stroke="none" 
	d="
M290.022278,189.947617 
	C290.022278,189.947617 289.997131,190.427368 289.566864,190.703217 
	C287.875031,190.901688 286.613434,190.824310 284.874695,190.717651 
	C284.874695,178.261536 284.874695,166.153030 284.941589,153.638428 
	C284.946869,151.865204 284.885223,150.498062 284.917023,149.077942 
	C285.010468,149.024963 285.189575,148.906387 285.189575,148.906372 
	C286.662659,149.131393 288.135712,149.356400 289.826965,150.336533 
	C290.037537,164.043640 290.029907,176.995636 290.022278,189.947617 
z"/>
<path fill="#14181B" opacity="1.000000" stroke="none" 
	d="
M260.311676,195.854172 
	C259.874115,194.208527 259.073456,192.566483 259.057068,190.916656 
	C258.938416,178.963989 258.978088,167.009750 258.928528,154.603973 
	C258.889374,154.151947 259.003418,154.004364 259.458679,153.951584 
	C261.260895,153.943237 262.607819,153.987671 263.979980,154.498169 
	C264.048126,166.606445 264.091034,178.248672 264.080841,190.297302 
	C264.606445,193.731781 263.090973,195.248901 260.311676,195.854172 
z"/>
<path fill="#161B20" opacity="1.000000" stroke="none" 
	d="
M268.329926,232.775131 
	C265.099304,233.461868 263.871033,232.257721 263.918640,228.874664 
	C264.068176,218.248611 263.966919,207.619019 264.374512,196.495819 
	C266.193970,195.996368 267.601624,195.991913 269.062622,196.455231 
	C269.188690,206.877380 269.261414,216.831741 269.244049,227.236450 
	C269.112671,229.224716 269.071381,230.762650 268.877441,232.319092 
	C268.509521,232.407928 268.377899,232.553772 268.329926,232.775131 
z"/>
<path fill="#14181B" opacity="1.000000" stroke="none" 
	d="
M296.073029,233.011429 
	C297.125031,233.010300 298.177063,233.009155 299.614624,233.485229 
	C299.997711,245.594803 300.040131,257.227509 299.948273,268.859100 
	C299.933105,270.782745 299.330261,272.701782 298.653625,274.700745 
	C297.842957,274.725250 297.377716,274.671936 296.795471,274.478699 
	C296.492401,274.172638 296.278259,274.059448 295.959015,274.049896 
	C295.881897,274.100586 295.716888,274.017883 295.811829,273.558960 
	C295.821289,261.411896 295.735840,249.723770 295.679779,237.618744 
	C295.636993,235.825134 295.564819,234.448380 295.637573,233.054932 
	C295.782501,233.038223 296.073029,233.011429 296.073029,233.011429 
z"/>
<path fill="#14181B" opacity="1.000000" stroke="none" 
	d="
M280.068390,106.952171 
	C283.917145,106.442719 285.182007,108.020042 285.091888,111.953041 
	C284.831360,123.326889 284.976074,134.710022 284.540344,146.537689 
	C280.737762,146.705154 281.008148,144.189011 281.005768,141.865952 
	C280.996002,132.306900 281.045258,122.747429 280.956940,113.189178 
	C280.940918,111.453239 280.382324,109.722298 280.058105,107.729919 
	C280.050781,107.297905 280.059570,107.125038 280.068390,106.952171 
z"/>
<path fill="#161B20" opacity="1.000000" stroke="none" 
	d="
M274.875488,353.217834 
	C274.919098,349.446259 275.133118,345.666565 274.953003,341.905701 
	C274.805847,338.832367 276.135406,337.726440 279.458466,337.920868 
	C279.932251,337.921570 280.046997,338.050812 280.016174,338.514069 
	C279.945038,345.604645 279.904785,352.231934 279.931641,358.927429 
	C279.998779,358.995636 279.858856,358.865570 279.411865,358.870575 
	C275.647278,358.911957 272.329712,358.948364 268.601562,358.929138 
	C264.152039,359.535034 263.633698,357.180359 264.489685,354.023621 
	C268.249756,353.749878 271.562622,353.483856 274.875488,353.217834 
z"/>
<path fill="#1E222A" opacity="1.000000" stroke="none" 
	d="
M311.886627,334.023926 
	C311.837006,336.354950 312.189758,338.349304 315.645569,338.539154 
	C316.040070,347.307404 316.055969,355.600677 316.071869,363.893982 
	C314.720001,363.956238 313.368164,364.018524 311.545898,364.081879 
	C311.075470,364.082947 310.954987,363.932220 311.018890,363.525269 
	C311.053101,361.744080 311.023407,360.369843 311.092163,358.537170 
	C311.142426,353.039459 311.094330,348.000214 311.079346,342.552795 
	C311.368866,339.764526 311.076233,337.773438 308.006989,337.379089 
	C307.793732,334.047638 309.727600,333.889435 311.886627,334.023926 
z"/>
<path fill="#161B20" opacity="1.000000" stroke="none" 
	d="
M311.145630,364.149170 
	C311.504578,367.477966 311.793365,370.740540 311.956665,374.470154 
	C311.831116,374.937164 311.492676,374.958374 311.035217,374.916595 
	C309.388214,374.751495 308.198608,374.628143 306.973389,374.333496 
	C306.622772,374.258881 306.307770,374.355652 305.602112,374.559235 
	C304.143463,374.615295 303.075500,374.564514 301.965515,374.292755 
	C301.652588,373.723785 301.381653,373.375824 301.062134,372.624939 
	C300.455780,371.221619 299.915466,369.369507 299.337433,369.357635 
	C295.266205,369.274170 295.591522,366.782990 296.496216,364.050385 
	C298.294586,363.982422 299.677582,363.932800 301.463013,363.949219 
	C303.223175,363.990509 304.580902,363.965729 306.355316,363.985718 
	C308.166321,363.997742 309.560669,363.964996 310.954987,363.932220 
	C310.954987,363.932220 311.075470,364.082947 311.145630,364.149170 
z"/>
<path fill="#161B20" opacity="1.000000" stroke="none" 
	d="
M274.670502,91.309441 
	C274.748047,89.212456 275.030884,87.098160 274.855896,85.022461 
	C274.580719,81.758316 275.995972,80.568123 279.508240,80.904762 
	C279.939240,88.994621 279.941467,97.122185 279.485657,105.701614 
	C277.655243,106.130150 276.282898,106.106834 274.850708,105.615067 
	C274.750702,100.534225 274.710602,95.921829 274.670502,91.309441 
z"/>
<path fill="#161B20" opacity="1.000000" stroke="none" 
	d="
M301.185059,401.239777 
	C301.649506,405.336639 299.542328,406.452026 295.852936,406.019562 
	C293.220215,405.710938 290.945557,405.889404 290.684967,409.589294 
	C290.622986,410.469269 288.411469,411.590546 287.034058,411.890228 
	C285.123352,412.305878 283.066620,412.050049 280.555756,412.066437 
	C280.039124,412.051178 279.889343,411.885071 279.915039,411.454102 
	C280.054504,409.457428 280.168213,407.891693 280.304199,406.019073 
	C283.696503,406.019073 286.626282,406.019073 289.657806,406.019073 
	C290.067474,404.185181 290.408386,402.658997 290.808594,400.867432 
	C294.290955,400.867432 297.584473,400.867432 300.954712,400.960510 
	C301.031464,401.053619 301.185059,401.239777 301.185059,401.239777 
z"/>
<path fill="#161B20" opacity="1.000000" stroke="none" 
	d="
M221.854858,363.842773 
	C221.484314,360.025543 223.132980,358.664886 226.990173,358.894409 
	C229.676788,359.054352 232.155502,358.518982 233.539062,355.064545 
	C234.082657,353.707275 237.944611,353.679047 240.919922,353.366272 
	C241.959763,355.379242 242.375061,357.071533 242.392899,358.794373 
	C240.665710,358.887360 239.335983,358.949738 237.585388,358.968384 
	C233.120728,358.215271 232.432709,360.538757 232.367493,363.847565 
	C230.345123,364.003815 228.724335,364.100555 226.690781,364.133728 
	C224.890610,364.086121 223.503189,364.102173 222.050079,364.049805 
	C221.984406,363.981384 221.854858,363.842773 221.854858,363.842773 
z"/>
<path fill="#1C1C20" opacity="1.000000" stroke="none" 
	d="
M311.922272,333.555542 
	C309.727600,333.889435 307.793732,334.047638 307.741943,337.434509 
	C307.114655,337.898438 306.758179,337.932068 306.297363,337.512146 
	C306.095917,332.052704 305.998810,327.046844 305.968201,321.634460 
	C305.987762,319.859406 305.940796,318.490906 305.893860,317.122375 
	C305.893860,317.122375 306.008087,316.961853 306.068176,316.882172 
	C310.925720,316.384430 312.467285,318.746826 312.045471,323.279510 
	C311.743591,326.523376 311.968201,329.816193 311.922272,333.555542 
z"/>
<path fill="#14181B" opacity="1.000000" stroke="none" 
	d="
M279.871643,337.859985 
	C279.860596,331.223511 279.910156,324.648682 279.913574,317.624512 
	C279.867432,317.175232 279.967957,317.050476 280.415161,317.001099 
	C282.197876,317.005493 283.533356,317.059265 284.907654,317.570129 
	C284.992493,322.659058 285.038513,327.290894 285.042175,332.348877 
	C284.983734,334.471130 284.967590,336.167267 284.542297,337.882690 
	C282.771088,337.951630 281.409058,338.001221 280.046997,338.050812 
	C280.046997,338.050812 279.932251,337.921570 279.871643,337.859985 
z"/>
<path fill="#14181B" opacity="1.000000" stroke="none" 
	d="
M273.655457,75.045975 
	C273.986603,76.515152 273.837982,77.962906 273.624237,80.045219 
	C267.293518,80.045219 261.096100,80.045219 254.426849,80.004593 
	C253.473312,76.198860 254.891510,74.634537 258.891083,74.917717 
	C263.631348,75.253334 268.412354,75.014450 273.655457,75.045975 
z"/>
<path fill="#161B20" opacity="1.000000" stroke="none" 
	d="
M242.941132,352.841125 
	C242.839371,350.629364 243.139877,348.905548 246.071472,348.980682 
	C251.064240,349.108612 256.072876,348.851379 261.050079,349.157867 
	C262.083588,349.221527 263.009216,351.036774 263.970825,352.602844 
	C263.957062,353.160950 263.971405,353.458130 263.510010,353.415161 
	C258.432281,353.422180 253.815918,353.472168 248.765015,353.407959 
	C246.534012,353.142883 244.737579,352.992004 242.941132,352.841125 
z"/>
<path fill="#14181B" opacity="1.000000" stroke="none" 
	d="
M242.970428,422.517822 
	C247.954178,422.004028 252.927643,421.916656 258.354614,421.798950 
	C259.549500,425.461304 258.548889,427.508789 254.273865,427.045868 
	C251.818787,426.780029 249.300415,426.849121 246.830399,427.033478 
	C243.709137,427.266418 242.600082,425.868988 242.970428,422.517822 
z"/>
<path fill="#1E222A" opacity="1.000000" stroke="none" 
	d="
M322.110931,391.120178 
	C322.048859,392.431183 321.986755,393.742188 321.904297,395.484253 
	C318.815552,395.662781 315.886078,395.832123 312.199554,396.053284 
	C310.283752,396.015381 309.125031,395.925690 308.311401,395.678223 
	C309.934326,393.964478 311.212158,392.408478 312.974152,390.262878 
	C313.649445,390.194122 315.280731,390.028015 317.329651,389.923157 
	C319.147461,389.954712 320.547546,389.925049 321.987610,390.201691 
	C322.055389,390.712067 322.083160,390.916107 322.110931,391.120178 
z"/>
<path fill="#3A4041" opacity="1.000000" stroke="none" 
	d="
M211.405289,404.903564 
	C214.645691,405.448059 217.886093,405.992554 221.864700,406.661072 
	C221.910599,407.622772 221.983261,409.145416 222.059357,411.320282 
	C222.062790,411.972534 221.959747,412.320587 221.959747,412.320587 
	C218.997879,412.320587 216.036011,412.320587 213.242691,412.320587 
	C212.084518,410.277893 211.093170,408.529449 210.196716,406.203949 
	C210.662842,405.385803 211.034058,405.144684 211.405289,404.903564 
z"/>
<path fill="#14181B" opacity="1.000000" stroke="none" 
	d="
M221.974823,412.725464 
	C221.959747,412.320587 222.062790,411.972534 222.015442,411.797363 
	C225.201721,411.622162 228.435364,411.622162 231.864777,411.622162 
	C231.956055,413.178558 232.039490,414.601257 232.213196,416.440948 
	C230.187256,416.904724 228.061508,416.841797 225.957108,417.024658 
	C223.017029,417.280090 221.652481,416.120300 221.974823,412.725464 
z"/>
<path fill="#14181B" opacity="1.000000" stroke="none" 
	d="
M322.526978,391.078003 
	C322.083160,390.916107 322.055389,390.712067 321.981873,389.758667 
	C321.922333,386.033752 321.908539,383.058228 321.976227,380.027771 
	C322.057678,379.972900 322.218170,379.859589 322.218170,379.859589 
	C325.638885,379.621826 327.605560,380.755157 327.025940,384.638336 
	C326.609589,387.427734 328.393005,391.499512 322.526978,391.078003 
z"/>
<path fill="#1C1C20" opacity="1.000000" stroke="none" 
	d="
M311.492676,374.958374 
	C311.492676,374.958374 311.831116,374.937164 311.998962,374.905151 
	C314.160034,374.920319 316.169586,375.149872 318.142700,374.972809 
	C321.275757,374.691681 322.380981,376.119324 322.166077,379.444031 
	C322.218170,379.859589 322.057678,379.972900 321.532532,379.975861 
	C317.748474,379.918671 314.489563,379.858490 311.164917,379.867920 
	C311.099182,379.937500 311.196472,379.772644 311.202423,379.370422 
	C311.303131,377.631561 311.397888,376.294983 311.492676,374.958374 
z"/>
<path fill="#1E222A" opacity="1.000000" stroke="none" 
	d="
M200.962570,373.934113 
	C201.001511,372.835602 201.040451,371.737122 201.569870,370.242126 
	C203.835281,369.850891 205.631165,370.032684 207.380798,369.824890 
	C211.103241,369.382812 212.479294,370.912445 211.339920,374.589294 
	C209.304413,374.792297 207.669846,374.919952 205.618683,374.999023 
	C203.809067,374.985962 202.416031,375.021454 201.007858,374.776245 
	C200.982666,374.308411 200.972626,374.121277 200.962570,373.934113 
z"/>
<path fill="#14181B" opacity="1.000000" stroke="none" 
	d="
M259.238708,421.852997 
	C258.772583,420.361847 258.772583,418.911957 258.772583,416.770508 
	C262.317566,416.770508 265.629883,416.770508 269.396027,416.787109 
	C270.523712,420.623596 268.937958,422.322906 265.065216,422.020752 
	C263.285950,421.881958 261.492065,421.930603 259.238708,421.852997 
z"/>
<path fill="#14181B" opacity="1.000000" stroke="none" 
	d="
M270.260254,416.898193 
	C269.533600,415.496674 269.273712,414.133240 269.482300,412.363708 
	C273.263641,411.933441 276.576508,411.909241 279.889343,411.885071 
	C279.889343,411.885071 280.039124,412.051178 280.119324,412.131348 
	C280.238739,420.195251 274.180359,415.954468 270.260254,416.898193 
z"/>
<path fill="#1C1C20" opacity="1.000000" stroke="none" 
	d="
M200.548279,373.961792 
	C200.972626,374.121277 200.982666,374.308411 201.006454,375.175659 
	C200.959106,377.186371 200.898026,378.516907 200.427277,379.883667 
	C198.650848,379.997040 197.284088,380.074249 195.917313,380.151459 
	C194.532318,380.063782 193.147339,379.976135 191.356735,379.788422 
	C190.590240,376.469604 191.565964,374.631500 195.272141,374.880524 
	C196.865601,374.987640 198.511765,374.310394 200.548279,373.961792 
z"/>
<path fill="#1C1C20" opacity="1.000000" stroke="none" 
	d="
M307.966278,395.835938 
	C309.125031,395.925690 310.283752,396.015381 311.779907,396.087830 
	C311.970642,397.506012 311.823944,398.941406 311.602509,401.108368 
	C308.284302,401.108368 305.115356,401.108368 301.565735,401.174072 
	C301.185059,401.239777 301.031464,401.053619 300.982025,400.574402 
	C300.985168,399.065643 301.037720,398.036102 301.388580,396.960815 
	C302.143250,396.556671 302.599609,396.198242 303.461060,395.767059 
	C305.232880,395.741516 306.599579,395.788727 307.966278,395.835938 
z"/>
<path fill="#161B20" opacity="1.000000" stroke="none" 
	d="
M211.970047,368.944611 
	C212.086700,367.494751 212.203369,366.044861 212.372589,363.941803 
	C215.421402,363.941803 218.199066,363.941803 221.415802,363.892273 
	C221.854858,363.842773 221.984406,363.981384 221.998383,364.452942 
	C222.007797,366.283081 222.003220,367.641663 221.599945,369.075134 
	C219.856186,369.226501 218.511108,369.303009 216.739395,369.296906 
	C214.865173,369.124390 213.417618,369.034515 211.970047,368.944611 
z"/>
<path fill="#251F1B" opacity="1.000000" stroke="none" 
	d="
M280.074219,107.989052 
	C280.382324,109.722298 280.940918,111.453239 280.956940,113.189178 
	C281.045258,122.747429 280.996002,132.306900 281.005768,141.865952 
	C281.008148,144.189011 280.737762,146.705154 284.512054,147.007355 
	C284.946960,147.449890 284.988831,147.870911 285.110138,148.599167 
	C285.189575,148.906387 285.010468,149.024963 284.534424,149.015991 
	C282.772095,148.941254 281.485870,148.875473 280.136414,148.834686 
	C280.073181,148.859711 280.208801,148.869522 280.194885,148.409760 
	C280.066193,136.017273 279.951447,124.084564 279.880737,111.737167 
	C279.974579,110.211334 280.024414,109.100197 280.074219,107.989052 
z"/>
<path fill="#161B20" opacity="1.000000" stroke="none" 
	d="
M189.574966,380.012329 
	C190.032501,381.456665 190.032501,382.902100 190.032501,384.982513 
	C186.924911,384.982513 183.941238,384.982513 180.506348,385.030945 
	C179.458923,381.419830 180.584457,379.405731 184.711075,379.977844 
	C186.153778,380.177856 187.647186,380.012146 189.574966,380.012329 
z"/>
<path fill="#14181B" opacity="1.000000" stroke="none" 
	d="
M179.927322,390.287109 
	C182.057648,390.255402 184.211548,390.411957 186.312912,390.148895 
	C189.671249,389.728485 190.808380,391.148499 189.805939,394.679993 
	C186.222763,395.062256 183.131363,395.062225 180.039963,395.062225 
	C180.001282,394.060883 179.962616,393.059509 179.925842,391.429382 
	C179.927612,390.629425 179.927475,390.458282 179.927322,390.287109 
z"/>
<path fill="#161B20" opacity="1.000000" stroke="none" 
	d="
M191.012497,396.332123 
	C194.117081,395.895569 197.219955,395.895569 200.734329,395.895569 
	C200.823456,397.202667 200.919907,398.617157 201.055603,400.482483 
	C199.111938,400.970276 197.115417,400.873901 195.149109,401.074158 
	C191.823532,401.412781 190.588409,399.935577 191.012497,396.332123 
z"/>
<path fill="#14181B" opacity="1.000000" stroke="none" 
	d="
M232.995514,417.447479 
	C236.185638,417.020996 239.378662,417.020996 243.100143,417.020996 
	C242.914963,418.482635 242.745895,419.817139 242.422531,421.517914 
	C240.449692,421.922302 238.620239,421.847961 236.815018,422.023254 
	C233.617096,422.333832 232.694153,420.705933 232.995514,417.447479 
z"/>
<path fill="#14181B" opacity="1.000000" stroke="none" 
	d="
M211.486801,404.597351 
	C211.034058,405.144684 210.662842,405.385803 210.042175,405.853516 
	C208.189484,406.052948 206.571762,405.876434 204.985977,406.029816 
	C201.704239,406.347321 200.624054,404.794067 201.042831,401.343231 
	C203.739075,400.919159 206.418304,400.925873 209.488281,401.241150 
	C210.388214,402.048004 210.897400,402.546326 211.406570,403.044647 
	C211.460480,403.460144 211.514404,403.875610 211.486801,404.597351 
z"/>
<path fill="#1E222A" opacity="1.000000" stroke="none" 
	d="
M298.999023,274.622925 
	C299.330261,272.701782 299.933105,270.782745 299.948273,268.859100 
	C300.040131,257.227509 299.997711,245.594803 300.009308,233.497299 
	C300.350891,234.752350 300.956390,236.470108 300.971893,238.193192 
	C301.079163,250.119751 301.063629,262.047424 301.162781,274.428650 
	C301.237976,274.882599 301.068024,274.988525 300.662109,274.968262 
	C299.837128,274.839630 299.418060,274.731262 298.999023,274.622925 
z"/>
<path fill="#716665" opacity="1.000000" stroke="none" 
	d="
M270.036194,274.812073 
	C269.710663,273.324005 269.112091,271.837646 269.102783,270.347595 
	C269.027039,258.196716 269.061371,246.045120 269.052734,233.433426 
	C269.043304,232.973114 269.027100,232.970383 269.237915,232.974823 
	C269.448700,232.979279 269.869934,232.959869 269.892944,233.432022 
	C269.976898,247.282486 270.037781,260.660797 270.078125,274.231934 
	C270.057617,274.424805 270.036194,274.812073 270.036194,274.812073 
z"/>
<path fill="#716665" opacity="1.000000" stroke="none" 
	d="
M294.870728,232.978760 
	C294.945740,219.338562 295.020752,205.698349 295.120483,191.601318 
	C295.419128,192.701874 295.921906,194.257965 295.930603,195.816818 
	C295.997986,207.903198 295.970001,219.990128 296.022278,232.544159 
	C296.073029,233.011429 295.782501,233.038223 295.479065,233.054443 
	C295.175659,233.070679 294.870728,232.978760 294.870728,232.978760 
z"/>
<path fill="#716665" opacity="1.000000" stroke="none" 
	d="
M253.902267,111.984207 
	C253.942703,125.670692 253.983124,139.357178 253.994110,153.509766 
	C253.634460,152.491211 253.026489,151.008148 253.017838,149.521606 
	C252.946854,137.315689 252.987335,125.109108 253.240601,112.444923 
	C253.487213,111.987122 253.902267,111.984207 253.902267,111.984207 
z"/>
<path fill="#A29696" opacity="1.000000" stroke="none" 
	d="
M274.798615,274.991638 
	C274.842621,288.317810 274.886627,301.643982 274.950989,315.431213 
	C274.659302,314.383331 274.085602,312.875916 274.076660,311.365173 
	C274.006622,299.548370 274.044922,287.730957 274.251831,275.477570 
	C274.453796,275.041412 274.798615,274.991638 274.798615,274.991638 
z"/>
<path fill="#716665" opacity="1.000000" stroke="none" 
	d="
M211.525543,369.001434 
	C213.417618,369.034515 214.865173,369.124390 216.696716,369.695282 
	C217.467270,374.289276 215.716019,375.770447 211.740860,374.513916 
	C212.479294,370.912445 211.103241,369.382812 207.380798,369.824890 
	C205.631165,370.032684 203.835281,369.850891 201.615250,369.832458 
	C204.473785,369.565582 207.777420,369.311920 211.525543,369.001434 
z"/>
<path fill="#A29696" opacity="1.000000" stroke="none" 
	d="
M290.256714,189.992279 
	C290.029907,176.995636 290.037537,164.043640 290.048645,150.634949 
	C290.364929,151.693436 290.939056,153.206940 290.948853,154.724106 
	C291.022644,166.145584 290.985352,177.567780 290.967712,189.452347 
	C290.952606,189.914932 290.491150,190.036957 290.256714,189.992279 
z"/>
<path fill="#674738" opacity="1.000000" stroke="none" 
	d="
M275.220886,274.963989 
	C274.798615,274.991638 274.453796,275.041412 274.282806,275.008301 
	C273.022278,274.946960 271.932709,274.918732 270.439697,274.851288 
	C270.036194,274.812073 270.057617,274.424805 270.468750,274.242676 
	C275.170410,274.718933 273.530853,270.676422 275.309937,269.026733 
	C280.855225,268.500977 280.083221,271.976776 279.853333,275.082672 
	C278.449951,275.033905 277.046570,274.985138 275.220886,274.963989 
z"/>
<path fill="#674738" opacity="1.000000" stroke="none" 
	d="
M254.309357,111.970993 
	C253.902267,111.984207 253.487213,111.987122 253.280151,111.975464 
	C251.995255,111.906906 250.917435,111.850021 249.439606,111.614182 
	C249.039597,111.435226 249.079437,111.092041 249.490875,111.117889 
	C254.232086,111.506378 252.665298,107.903671 253.840302,105.919952 
	C259.385254,105.377769 259.355469,108.566032 258.758331,112.167641 
	C257.411041,112.097687 256.063751,112.027733 254.309357,111.970993 
z"/>
<path fill="#674738" opacity="1.000000" stroke="none" 
	d="
M269.009308,195.987473 
	C267.601624,195.991913 266.193970,195.996368 264.363098,196.031174 
	C262.969177,195.993057 261.998444,195.924576 260.669708,195.855133 
	C263.090973,195.248901 264.606445,193.731781 264.476379,190.335632 
	C269.257172,189.958679 271.242340,191.542114 269.009308,195.987473 
z"/>
<path fill="#716665" opacity="1.000000" stroke="none" 
	d="
M242.654312,352.917847 
	C244.737579,352.992004 246.534012,353.142883 248.687286,353.788818 
	C249.548737,359.391632 246.344009,359.321259 242.790375,358.763794 
	C242.375061,357.071533 241.959763,355.379242 241.364502,353.391296 
	C241.578873,353.061920 241.973190,353.028259 242.654312,352.917847 
z"/>
<path fill="#716665" opacity="1.000000" stroke="none" 
	d="
M249.079437,111.092041 
	C249.079437,111.092041 249.039597,111.435226 249.035141,111.607124 
	C248.693924,111.138199 248.063538,110.496979 248.064377,109.856598 
	C248.077469,100.039391 248.172821,90.222290 248.658478,80.252518 
	C249.067902,80.099876 249.130020,80.558395 249.078522,81.254578 
	C249.044479,91.664520 249.061966,101.378281 249.079437,111.092041 
z"/>
<path fill="#674738" opacity="1.000000" stroke="none" 
	d="
M280.058105,107.729919 
	C280.024414,109.100197 279.974579,110.211334 279.486755,111.692429 
	C277.724365,112.034607 276.400055,112.006844 275.014832,111.560425 
	C274.939484,109.455681 274.925049,107.769592 274.910583,106.083511 
	C276.282898,106.106834 277.655243,106.130150 279.434509,106.180862 
	C279.841461,106.208260 279.926361,106.589149 279.997375,106.770660 
	C280.059570,107.125038 280.050781,107.297905 280.058105,107.729919 
z"/>
<path fill="#1C1C20" opacity="1.000000" stroke="none" 
	d="
M179.975616,389.851868 
	C179.927475,390.458282 179.927612,390.629425 179.886002,391.055786 
	C178.399475,391.135712 176.954697,390.960388 175.405075,390.772369 
	C174.689987,387.363556 174.389359,384.497528 179.652679,385.049500 
	C180.060852,386.509430 180.042389,387.963043 179.975616,389.851868 
z"/>
<path fill="#3A4041" opacity="1.000000" stroke="none" 
	d="
M316.388672,363.631958 
	C316.055969,355.600677 316.040070,347.307404 316.045349,338.554810 
	C316.391235,342.091919 316.898743,346.084106 316.991608,350.085907 
	C317.094238,354.509308 316.817139,358.941528 316.388672,363.631958 
z"/>
<path fill="#716665" opacity="1.000000" stroke="none" 
	d="
M274.431671,353.150848 
	C271.562622,353.483856 268.249756,353.749878 264.415466,353.887329 
	C263.894043,353.758728 263.971405,353.458130 263.971405,353.458130 
	C263.971405,353.458130 263.957062,353.160950 263.976105,353.013367 
	C267.326050,352.938446 270.656952,353.011139 274.431671,353.150848 
z"/>
<path fill="#716665" opacity="1.000000" stroke="none" 
	d="
M180.270752,395.414978 
	C183.131363,395.062225 186.222763,395.062256 189.782166,395.134705 
	C190.250183,395.207092 190.396851,395.372314 190.344116,395.469391 
	C187.028091,395.633545 183.764816,395.700623 180.270752,395.414978 
z"/>
<path fill="#716665" opacity="1.000000" stroke="none" 
	d="
M268.513062,232.824921 
	C268.377899,232.553772 268.509521,232.407928 268.856171,232.485474 
	C268.987549,232.633362 269.027100,232.970383 269.027100,232.970383 
	C269.027100,232.970383 269.043304,232.973114 269.055725,232.961670 
	C269.068146,232.950241 268.696198,232.874710 268.513062,232.824921 
z"/>
<path fill="#A29696" opacity="1.000000" stroke="none" 
	d="
M263.510010,353.415161 
	C263.971405,353.458130 263.894043,353.758728 263.968262,353.895020 
	C263.633698,357.180359 264.152039,359.535034 268.622009,359.349091 
	C269.044830,361.225647 269.036621,362.626617 268.607117,364.021454 
	C266.809509,364.878998 265.433136,365.742645 264.056793,366.606323 
	C264.834808,367.407532 265.612823,368.208740 266.390839,369.009949 
	C267.272034,367.653931 268.175629,366.311432 269.012085,364.928375 
	C269.149689,364.700867 268.992462,364.295044 269.433044,363.981140 
	C273.110413,363.990601 276.326202,363.990601 279.858856,363.990601 
	C279.858856,361.764648 279.858856,360.315094 279.858856,358.865570 
	C279.858856,358.865570 279.998779,358.995636 280.367432,358.950836 
	C283.978485,359.396576 285.349030,358.078369 285.036438,354.756256 
	C284.834778,352.612915 284.990143,350.435974 285.409851,348.286072 
	C287.245453,348.218567 288.656708,348.139069 290.524170,348.103027 
	C294.380127,348.243683 297.779877,348.340790 301.118591,348.873383 
	C301.058533,354.166962 301.059570,359.025085 301.060608,363.883179 
	C299.677582,363.932800 298.294586,363.982422 296.058716,364.011017 
	C293.633942,364.115021 292.062073,364.240021 290.698700,364.348450 
	C289.010529,368.212463 292.526703,373.972595 285.712097,374.899261 
	C285.374023,374.945251 285.071350,377.293274 285.281372,378.475372 
	C285.387909,379.074951 286.741943,379.930023 287.414917,379.835541 
	C288.332611,379.706726 289.784607,378.873077 289.882294,378.182526 
	C290.342255,374.930542 292.530701,374.839203 294.965790,374.923950 
	C296.938293,374.992584 298.911224,375.050140 300.921082,375.529999 
	C300.689728,378.770905 301.659851,380.331879 304.808197,380.015930 
	C306.924438,379.803528 309.066162,379.844818 311.196472,379.772644 
	C311.196472,379.772644 311.099182,379.937500 311.127319,380.301331 
	C310.116241,385.195984 313.623657,384.994202 316.652283,385.392944 
	C316.747223,387.027008 316.829590,388.444458 316.911987,389.861908 
	C315.280731,390.028015 313.649445,390.194122 312.974152,390.262878 
	C311.212158,392.408478 309.934326,393.964478 308.311401,395.678223 
	C306.599579,395.788727 305.232880,395.741516 303.235474,395.640167 
	C302.099915,396.059540 301.595093,396.533051 301.090271,397.006592 
	C301.037720,398.036102 300.985168,399.065643 300.905273,400.481293 
	C297.584473,400.867432 294.290955,400.867432 290.808594,400.867432 
	C290.408386,402.658997 290.067474,404.185181 289.657806,406.019073 
	C286.626282,406.019073 283.696503,406.019073 280.304199,406.019073 
	C280.168213,407.891693 280.054504,409.457428 279.915039,411.454102 
	C276.576508,411.909241 273.263641,411.933441 269.499878,412.004913 
	C264.307007,411.757690 259.562958,411.210022 254.823929,411.250397 
	C251.171310,411.281525 248.148117,411.137787 248.314911,406.031891 
	C244.877869,406.031891 241.781097,406.031891 238.447723,406.031891 
	C238.108658,404.232025 237.844467,402.829590 237.633682,401.710632 
	C233.918854,399.229980 226.559998,404.535919 226.783554,395.518738 
	C223.637863,395.332764 220.707855,395.159515 217.561035,394.973450 
	C217.198120,393.440430 216.867783,392.045044 216.396072,390.052521 
	C214.121216,390.052521 211.701736,390.522430 209.606949,389.899811 
	C208.008560,389.424805 206.821655,387.565308 205.451706,386.321716 
	C205.658081,385.871002 205.864441,385.420258 206.070801,384.969543 
	C203.972153,384.969543 201.855606,384.796051 199.779007,385.010010 
	C196.625473,385.334930 195.501114,383.978516 195.913391,380.577148 
	C197.284088,380.074249 198.650848,379.997040 200.853195,379.926605 
	C205.794830,380.668732 206.416458,378.304230 206.035278,375.047607 
	C207.669846,374.919952 209.304413,374.792297 211.339920,374.589294 
	C215.716019,375.770447 217.467270,374.289276 217.123367,369.777924 
	C218.511108,369.303009 219.856186,369.226501 221.864197,369.310120 
	C227.602203,370.793304 226.975418,367.167725 227.103531,364.197327 
	C228.724335,364.100555 230.345123,364.003815 232.796387,363.913391 
	C237.881241,364.777710 238.278534,362.193665 238.006271,359.012146 
	C239.335983,358.949738 240.665710,358.887360 242.392883,358.794373 
	C246.344009,359.321259 249.548737,359.391632 249.121841,353.903015 
	C253.815918,353.472168 258.432281,353.422180 263.510010,353.415161 
z"/>
<path fill="#3A4041" opacity="1.000000" stroke="none" 
	d="
M211.555634,402.794250 
	C210.897400,402.546326 210.388214,402.048004 209.932953,401.290894 
	C210.559479,401.536011 211.132095,402.039917 211.555634,402.794250 
z"/>
<path fill="#E58E4C" opacity="1.000000" stroke="none" 
	d="
M274.850708,105.615067 
	C274.925049,107.769592 274.939484,109.455681 274.761383,111.828888 
	C274.864655,113.953804 274.861084,116.473099 275.505524,116.651489 
	C279.305786,117.703438 279.075439,120.557953 279.086243,123.379875 
	C279.112244,130.174210 279.019592,136.970062 279.142548,143.762253 
	C279.173462,145.470551 279.836334,147.167404 280.208801,148.869522 
	C280.208801,148.869522 280.073181,148.859711 280.075928,149.257874 
	C279.256500,153.764542 281.786957,154.209030 284.874695,154.044510 
	C284.874695,166.153030 284.874695,178.261536 284.874695,190.717651 
	C286.613434,190.824310 287.875031,190.901688 289.575195,190.943283 
	C290.058594,204.245895 290.103394,217.584305 290.086609,231.812515 
	C289.491241,236.438263 290.688538,238.608719 294.931061,238.530609 
	C294.996887,244.111298 294.931885,249.234314 295.046997,254.353271 
	C295.194427,260.909851 295.486908,267.463165 295.716888,274.017883 
	C295.716888,274.017883 295.881897,274.100586 295.904846,274.291901 
	C295.927765,274.483215 296.019073,274.971008 295.992035,275.385803 
	C295.261169,279.845398 297.759186,280.261536 300.797852,280.065002 
	C300.862823,292.032135 300.927795,303.999237 301.008667,316.846741 
	C300.328094,321.790527 302.779877,322.294495 305.901703,322.040955 
	C305.998810,327.046844 306.095917,332.052704 306.185486,337.916016 
	C306.119598,340.193329 306.061249,341.613251 306.016144,343.013733 
	C306.029388,342.994324 306.015747,342.949371 305.561371,342.976074 
	C302.078888,342.990784 299.050751,342.978821 295.994934,342.500916 
	C295.956360,333.382477 296.049438,324.727295 295.828949,316.080139 
	C295.793488,314.690552 294.521851,312.311066 293.539978,312.154388 
	C290.310547,311.639038 290.009064,309.742676 290.019043,307.189575 
	C290.055573,297.871552 290.094910,288.552094 289.942108,279.236328 
	C289.919281,277.842987 288.974823,275.330139 288.287018,275.269806 
	C284.353760,274.924805 284.996063,272.222534 284.990967,269.805634 
	C284.971710,260.653900 285.078125,251.500229 284.893738,242.352188 
	C284.864594,240.905045 283.762817,238.399719 282.843292,238.244751 
	C279.562653,237.691818 279.994415,235.520218 279.990326,233.403442 
	C279.972290,224.085297 280.068298,214.765381 279.887207,205.450699 
	C279.858643,203.980225 278.799194,201.418793 277.908539,201.275497 
	C274.692444,200.758133 274.944031,198.704926 274.945068,196.517792 
	C274.949371,187.365997 275.081726,178.210175 274.815979,169.066040 
	C274.767120,167.383911 273.315216,164.551010 272.119141,164.325317 
	C268.985687,163.734009 269.023193,161.933548 269.028503,159.674210 
	C269.050079,150.522446 269.143005,141.368149 268.934479,132.221054 
	C268.896301,130.546280 267.910431,127.796516 266.783325,127.455467 
	C263.792267,126.550430 264.007050,124.618118 264.007141,122.446785 
	C264.007660,111.963860 263.996979,101.480927 263.990295,90.998001 
	C266.757629,90.936737 269.524933,90.875465 272.728577,91.054550 
	C273.248779,91.548378 273.332672,91.801834 273.416565,92.055283 
	C273.646790,91.790359 273.877014,91.525444 274.107239,91.260529 
	C274.107239,91.260529 274.383453,91.349907 274.526978,91.329674 
	C274.710602,95.921829 274.750702,100.534225 274.850708,105.615067 
z"/>
<path fill="#AD6C3A" opacity="1.000000" stroke="none" 
	d="
M263.583618,90.974373 
	C263.996979,101.480927 264.007660,111.963860 264.007141,122.446785 
	C264.007050,124.618118 263.792267,126.550430 266.783325,127.455467 
	C267.910431,127.796516 268.896301,130.546280 268.934479,132.221054 
	C269.143005,141.368149 269.050079,150.522446 269.028503,159.674210 
	C269.023193,161.933548 268.985687,163.734009 272.119141,164.325317 
	C273.315216,164.551010 274.767120,167.383911 274.815979,169.066040 
	C275.081726,178.210175 274.949371,187.365997 274.945068,196.517792 
	C274.944031,198.704926 274.692444,200.758133 277.908539,201.275497 
	C278.799194,201.418793 279.858643,203.980225 279.887207,205.450699 
	C280.068298,214.765381 279.972290,224.085297 279.990326,233.403442 
	C279.994415,235.520218 279.562653,237.691818 282.843292,238.244751 
	C283.762817,238.399719 284.864594,240.905045 284.893738,242.352188 
	C285.078125,251.500229 284.971710,260.653900 284.990967,269.805634 
	C284.996063,272.222534 284.353760,274.924805 288.287018,275.269806 
	C288.974823,275.330139 289.919281,277.842987 289.942108,279.236328 
	C290.094910,288.552094 290.055573,297.871552 290.019043,307.189575 
	C290.009064,309.742676 290.310547,311.639038 293.539978,312.154388 
	C294.521851,312.311066 295.793488,314.690552 295.828949,316.080139 
	C296.049438,324.727295 295.956360,333.382477 295.576050,342.529816 
	C293.524933,342.940399 291.864990,342.856140 290.155823,342.329895 
	C290.085815,340.249298 289.858490,338.581543 290.085114,336.977936 
	C290.650604,332.976593 288.760437,331.619110 285.084503,331.922699 
	C285.038513,327.290894 284.992493,322.659058 284.955078,317.158691 
	C286.098053,311.957825 282.383270,312.093262 280.049469,310.956360 
	C280.009644,299.306427 279.969788,287.656525 279.891632,275.544617 
	C280.083221,271.976776 280.855225,268.500977 275.276306,268.558380 
	C274.768616,256.465302 274.719025,244.859848 274.752625,232.823822 
	C275.986084,227.596176 273.183197,226.677902 269.334137,226.786118 
	C269.261414,216.831741 269.188690,206.877380 269.062622,196.455231 
	C271.242340,191.542114 269.257172,189.958679 264.529480,189.929230 
	C264.091034,178.248672 264.048126,166.606445 264.012329,154.081482 
	C264.658569,149.185043 262.241364,148.641937 259.127106,148.890366 
	C259.040375,136.951233 258.953674,125.012100 258.812622,112.620300 
	C259.355469,108.566032 259.385254,105.377769 253.783234,105.461479 
	C253.343170,99.348434 253.357010,93.735901 253.370834,88.123360 
	C254.194687,87.645103 255.018524,87.166847 255.842377,86.688599 
	C255.704285,87.090622 255.566208,87.492645 255.428131,87.894676 
	C258.011078,88.913361 260.594055,89.932053 263.583618,90.974373 
z"/>
<path fill="#161B20" opacity="1.000000" stroke="none" 
	d="
M253.253845,87.692589 
	C253.357010,93.735901 253.343170,99.348434 253.386414,105.419449 
	C252.665298,107.903671 254.232086,111.506378 249.490875,111.117889 
	C249.061966,101.378281 249.044479,91.664520 249.101410,81.484795 
	C254.867279,80.326416 252.574677,84.699776 253.253845,87.692589 
z"/>
<path fill="#AD6C3A" opacity="1.000000" stroke="none" 
	d="
M273.905457,91.115097 
	C273.877014,91.525444 273.646790,91.790359 273.416565,92.055283 
	C273.332672,91.801834 273.248779,91.548378 273.192749,91.072891 
	C273.220581,90.850876 273.703644,90.969681 273.905457,91.115097 
z"/>
<path fill="#674738" opacity="1.000000" stroke="none" 
	d="
M259.075195,149.305634 
	C262.241364,148.641937 264.658569,149.185043 263.987091,153.615433 
	C262.607819,153.987671 261.260895,153.943237 259.513123,153.875870 
	C259.082642,152.475586 259.052948,151.098251 259.075195,149.305634 
z"/>
<path fill="#674738" opacity="1.000000" stroke="none" 
	d="
M280.009277,311.383545 
	C282.383270,312.093262 286.098053,311.957825 284.916260,316.701599 
	C283.533356,317.059265 282.197876,317.005493 280.462250,316.936279 
	C280.031128,315.217499 280.000092,313.514099 280.009277,311.383545 
z"/>
<path fill="#AD6C3A" opacity="1.000000" stroke="none" 
	d="
M294.880280,238.071136 
	C290.688538,238.608719 289.491241,236.438263 290.078613,232.270996 
	C291.479065,232.188187 292.825867,232.536713 294.521667,232.931992 
	C294.870728,232.978760 295.175659,233.070679 295.334167,233.071167 
	C295.564819,234.448380 295.636993,235.825134 295.487000,237.617691 
	C295.264832,238.033508 294.880280,238.071136 294.880280,238.071136 
z"/>
<path fill="#AD6C3A" opacity="1.000000" stroke="none" 
	d="
M300.858643,279.653442 
	C297.759186,280.261536 295.261169,279.845398 296.222656,275.316223 
	C296.480316,274.831879 296.912445,274.618652 296.912445,274.618652 
	C297.377716,274.671936 297.842957,274.725250 298.653625,274.700745 
	C299.418060,274.731262 299.837128,274.839630 300.574615,275.016907 
	C300.901855,276.471191 300.910645,277.856567 300.858643,279.653442 
z"/>
<path fill="#AD6C3A" opacity="1.000000" stroke="none" 
	d="
M305.968201,321.634460 
	C302.779877,322.294495 300.328094,321.790527 301.048553,317.306793 
	C302.412354,316.945007 303.752197,317.003601 305.492950,317.092285 
	C305.940796,318.490906 305.987762,319.859406 305.968201,321.634460 
z"/>
<path fill="#AD6C3A" opacity="1.000000" stroke="none" 
	d="
M284.941589,153.638428 
	C281.786957,154.209030 279.256500,153.764542 280.139130,149.232864 
	C281.485870,148.875473 282.772095,148.941254 284.440979,149.068970 
	C284.885223,150.498062 284.946869,151.865204 284.941589,153.638428 
z"/>
<path fill="#674738" opacity="1.000000" stroke="none" 
	d="
M269.244049,227.236450 
	C273.183197,226.677902 275.986084,227.596176 274.365356,232.736359 
	C272.553223,233.039612 271.211578,232.999741 269.869934,232.959869 
	C269.869934,232.959869 269.448700,232.979279 269.237915,232.974823 
	C269.027100,232.970383 268.987549,232.633362 269.008850,232.466980 
	C269.071381,230.762650 269.112671,229.224716 269.244049,227.236450 
z"/>
<path fill="#716665" opacity="1.000000" stroke="none" 
	d="
M294.931061,238.530609 
	C294.880280,238.071136 295.264832,238.033508 295.457611,238.034576 
	C295.735840,249.723770 295.821289,261.411896 295.811829,273.558960 
	C295.486908,267.463165 295.194427,260.909851 295.046997,254.353271 
	C294.931885,249.234314 294.996887,244.111298 294.931061,238.530609 
z"/>
<path fill="#1E222A" opacity="1.000000" stroke="none" 
	d="
M296.795471,274.478699 
	C296.912445,274.618652 296.480316,274.831879 296.249695,274.901428 
	C296.019073,274.971008 295.927765,274.483215 295.981934,274.241211 
	C296.278259,274.059448 296.492401,274.172638 296.795471,274.478699 
z"/>
<path fill="#716665" opacity="1.000000" stroke="none" 
	d="
M284.985535,348.274109 
	C284.990143,350.435974 284.834778,352.612915 285.036438,354.756256 
	C285.349030,358.078369 283.978485,359.396576 280.300293,358.882629 
	C279.904785,352.231934 279.945038,345.604645 280.016174,338.514069 
	C281.409058,338.001221 282.771088,337.951630 284.559387,338.324097 
	C285.029938,340.208466 285.074280,341.670776 285.079773,343.556213 
	C285.022400,345.410919 285.003967,346.842499 284.985535,348.274109 
z"/>
<path fill="#716665" opacity="1.000000" stroke="none" 
	d="
M269.028381,364.027557 
	C269.036621,362.626617 269.044830,361.225647 269.032593,359.404724 
	C272.329712,358.948364 275.647278,358.911957 279.411865,358.870575 
	C279.858856,360.315094 279.858856,361.764648 279.858856,363.990601 
	C276.326202,363.990601 273.110413,363.990601 269.447235,363.995178 
	C268.999847,363.999725 269.028381,364.027557 269.028381,364.027557 
z"/>
<path fill="#A29696" opacity="1.000000" stroke="none" 
	d="
M311.046234,342.960999 
	C311.094330,348.000214 311.142426,353.039459 310.696442,358.513824 
	C308.883972,359.002563 307.565582,359.056152 306.181824,358.655396 
	C306.073669,354.911865 306.030914,351.622620 306.023499,347.885284 
	C306.044464,345.941223 306.030121,344.445312 306.015747,342.949371 
	C306.015747,342.949371 306.029388,342.994324 306.436157,343.015564 
	C308.244019,343.011536 309.645111,342.986267 311.046234,342.960999 
z"/>
<path fill="#716665" opacity="1.000000" stroke="none" 
	d="
M311.079346,342.552826 
	C309.645111,342.986267 308.244019,343.011536 306.422913,343.034973 
	C306.061249,341.613251 306.119598,340.193329 306.289795,338.369568 
	C306.758179,337.932068 307.114655,337.898438 307.736206,337.809387 
	C311.076233,337.773438 311.368866,339.764526 311.079346,342.552826 
z"/>
<path fill="#716665" opacity="1.000000" stroke="none" 
	d="
M306.247223,359.109741 
	C307.565582,359.056152 308.883972,359.002563 310.598022,358.972290 
	C311.023407,360.369843 311.053101,361.744080 311.018890,363.525269 
	C309.560669,363.964996 308.166321,363.997742 306.429382,363.588013 
	C306.140228,361.800262 306.193726,360.454987 306.247223,359.109741 
z"/>
<path fill="#716665" opacity="1.000000" stroke="none" 
	d="
M300.883942,375.112610 
	C298.911224,375.050140 296.938293,374.992584 294.965790,374.923950 
	C292.530701,374.839203 290.342255,374.930542 289.882294,378.182526 
	C289.784607,378.873077 288.332611,379.706726 287.414917,379.835541 
	C286.741943,379.930023 285.387909,379.074951 285.281372,378.475372 
	C285.071350,377.293274 285.374023,374.945251 285.712097,374.899261 
	C292.526703,373.972595 289.010529,368.212463 290.698700,364.348450 
	C292.062073,364.240021 293.633942,364.115021 295.643341,364.029358 
	C295.591522,366.782990 295.266205,369.274170 299.337433,369.357635 
	C299.915466,369.369507 300.455780,371.221619 301.038788,372.909912 
	C301.134216,373.972473 301.204407,374.347076 301.177124,374.819611 
	C301.079620,374.917511 300.883942,375.112610 300.883942,375.112610 
z"/>
<path fill="#ECEBDB" opacity="1.000000" stroke="none" 
	d="
M306.181824,358.655396 
	C306.193726,360.454987 306.140228,361.800262 306.012695,363.543213 
	C304.580902,363.965729 303.223175,363.990509 301.463013,363.949219 
	C301.059570,359.025085 301.058533,354.166962 301.515839,348.815796 
	C303.312164,348.326294 304.650146,348.329865 305.988159,348.333405 
	C306.030914,351.622620 306.073669,354.911865 306.181824,358.655396 
z"/>
<path fill="#716665" opacity="1.000000" stroke="none" 
	d="
M311.202423,379.370422 
	C309.066162,379.844818 306.924438,379.803528 304.808197,380.015930 
	C301.659851,380.331879 300.689728,378.770905 300.921082,375.529968 
	C300.883942,375.112610 301.079620,374.917511 301.371765,374.808655 
	C301.663910,374.699768 302.007538,374.513733 302.007538,374.513733 
	C303.075500,374.564514 304.143463,374.615295 305.852661,374.647858 
	C306.665558,374.588043 306.837280,374.546417 307.009033,374.504822 
	C308.198608,374.628143 309.388214,374.751495 311.035217,374.916595 
	C311.397888,376.294983 311.303131,377.631561 311.202423,379.370422 
z"/>
<path fill="#1C1C20" opacity="1.000000" stroke="none" 
	d="
M306.973389,374.333496 
	C306.837280,374.546417 306.665558,374.588043 306.243347,374.541016 
	C306.307770,374.355652 306.622772,374.258881 306.973389,374.333496 
z"/>
<path fill="#1C1C20" opacity="1.000000" stroke="none" 
	d="
M301.965515,374.292755 
	C302.007538,374.513733 301.663910,374.699768 301.469238,374.710754 
	C301.204407,374.347076 301.134216,373.972473 301.087372,373.312836 
	C301.381653,373.375824 301.652588,373.723785 301.965515,374.292755 
z"/>
<path fill="#716665" opacity="1.000000" stroke="none" 
	d="
M226.690781,364.133728 
	C226.975418,367.167725 227.602203,370.793304 222.262909,369.235260 
	C222.003220,367.641663 222.007797,366.283081 222.064056,364.521362 
	C223.503189,364.102173 224.890610,364.086121 226.690781,364.133728 
z"/>
<path fill="#716665" opacity="1.000000" stroke="none" 
	d="
M237.585388,358.968384 
	C238.278534,362.193665 237.881241,364.777710 233.197968,363.853882 
	C232.432709,360.538757 233.120728,358.215271 237.585388,358.968384 
z"/>
<path fill="#674738" opacity="1.000000" stroke="none" 
	d="
M285.118652,343.133118 
	C285.074280,341.670776 285.029938,340.208466 284.968536,338.304749 
	C284.967590,336.167267 284.983734,334.471130 285.042175,332.348877 
	C288.760437,331.619110 290.650604,332.976593 290.085114,336.977936 
	C289.858490,338.581543 290.085815,340.249298 290.077301,342.416412 
	C290.048035,342.944946 289.889679,343.112823 289.492920,343.084229 
	C287.770325,343.081451 286.444489,343.107269 285.118652,343.133118 
z"/>
<path fill="#716665" opacity="1.000000" stroke="none" 
	d="
M317.329651,389.923157 
	C316.829590,388.444458 316.747223,387.027008 316.652283,385.392944 
	C313.623657,384.994202 310.116241,385.195984 311.193054,380.231720 
	C314.489563,379.858490 317.748474,379.918671 321.451111,380.030762 
	C321.908539,383.058228 321.922333,386.033752 321.941895,389.452332 
	C320.547546,389.925049 319.147461,389.954712 317.329651,389.923157 
z"/>
<path fill="#716665" opacity="1.000000" stroke="none" 
	d="
M205.618683,374.999023 
	C206.416458,378.304230 205.794830,380.668732 201.262848,379.890442 
	C200.898026,378.516907 200.959106,377.186371 201.021591,375.456360 
	C202.416031,375.021454 203.809067,374.985962 205.618683,374.999023 
z"/>
<path fill="#1E222A" opacity="1.000000" stroke="none" 
	d="
M301.388580,396.960815 
	C301.595093,396.533051 302.099915,396.059540 302.830353,395.712921 
	C302.599609,396.198242 302.143250,396.556671 301.388580,396.960815 
z"/>
<path fill="#AD6C3A" opacity="1.000000" stroke="none" 
	d="
M280.194885,148.409760 
	C279.836334,147.167404 279.173462,145.470551 279.142548,143.762253 
	C279.019592,136.970062 279.112244,130.174210 279.086243,123.379875 
	C279.075439,120.557953 279.305786,117.703438 275.505524,116.651489 
	C274.861084,116.473099 274.864655,113.953804 274.822266,112.247551 
	C276.400055,112.006844 277.724365,112.034607 279.442688,112.107117 
	C279.951447,124.084564 280.066193,136.017273 280.194885,148.409760 
z"/>
<path fill="#14181B" opacity="1.000000" stroke="none" 
	d="
M269.892944,233.432022 
	C271.211578,232.999741 272.553223,233.039612 274.282166,233.166946 
	C274.719025,244.859848 274.768616,256.465302 274.851868,268.539124 
	C273.530853,270.676422 275.170410,274.718933 270.489258,274.049805 
	C270.037781,260.660797 269.976898,247.282486 269.892944,233.432022 
z"/>
<path fill="#674738" opacity="1.000000" stroke="none" 
	d="
M306.023499,347.885284 
	C304.650146,348.329865 303.312164,348.326294 301.576904,348.380310 
	C297.779877,348.340790 294.380127,348.243683 290.520325,347.688477 
	C290.003418,345.857910 289.946533,344.485352 289.889679,343.112823 
	C289.889679,343.112823 290.048035,342.944946 290.126526,342.858398 
	C291.864990,342.856140 293.524933,342.940399 295.603760,342.995758 
	C299.050751,342.978821 302.078888,342.990784 305.561401,342.976074 
	C306.030121,344.445312 306.044464,345.941223 306.023499,347.885284 
z"/>
<path fill="#14181B" opacity="1.000000" stroke="none" 
	d="
M289.492920,343.084229 
	C289.946533,344.485352 290.003418,345.857910 290.064148,347.644989 
	C288.656708,348.139069 287.245453,348.218567 285.409851,348.286072 
	C285.003967,346.842499 285.022400,345.410919 285.079773,343.556213 
	C286.444489,343.107269 287.770325,343.081451 289.492920,343.084229 
z"/>
<path fill="#716665" opacity="1.000000" stroke="none" 
	d="
M268.985657,363.985687 
	C268.992462,364.295044 269.149689,364.700867 269.012085,364.928375 
	C268.175629,366.311432 267.272034,367.653931 266.390839,369.009949 
	C265.612823,368.208740 264.834808,367.407532 264.056793,366.606323 
	C265.433136,365.742645 266.809509,364.878998 268.607117,364.021454 
	C269.028381,364.027557 268.999847,363.999725 268.985657,363.985687 
z"/>
</svg>